solid OpenSCAD_Model
  facet normal 0 -1 0
    outer loop
      vertex -53.68 -34.205 1
      vertex -53.664 -34.205 3
      vertex -53.68 -34.205 3
    endloop
  endfacet
  facet normal 0 -1 -0
    outer loop
      vertex -53.664 -34.205 3
      vertex -53.68 -34.205 1
      vertex -53.664 -34.205 1
    endloop
  endfacet
  facet normal -1 0 0
    outer loop
      vertex -45.63 -42.305 1
      vertex -45.63 -42.3019 3
      vertex -45.63 -42.3019 1
    endloop
  endfacet
  facet normal -1 -0 0
    outer loop
      vertex -45.63 -42.3019 3
      vertex -45.63 -42.305 1
      vertex -45.63 -42.305 3
    endloop
  endfacet
  facet normal -0.0627876 -0.998027 0
    outer loop
      vertex -46.5952 -42.2411 1
      vertex -45.63 -42.3019 3
      vertex -46.5952 -42.2411 3
    endloop
  endfacet
  facet normal -0.0627876 -0.998027 -0
    outer loop
      vertex -45.63 -42.3019 3
      vertex -46.5952 -42.2411 1
      vertex -45.63 -42.3019 1
    endloop
  endfacet
  facet normal -1 0 0
    outer loop
      vertex -53.664 -34.7136 1
      vertex -53.664 -34.205 3
      vertex -53.664 -34.205 1
    endloop
  endfacet
  facet normal -1 -0 0
    outer loop
      vertex -53.664 -34.205 3
      vertex -53.664 -34.7136 1
      vertex -53.664 -34.7136 3
    endloop
  endfacet
  facet normal -0.72897 -0.684546 0
    outer loop
      vertex -51.1248 -40.1096 1
      vertex -51.8212 -39.3681 3
      vertex -51.8212 -39.3681 1
    endloop
  endfacet
  facet normal -0.72897 -0.684546 0
    outer loop
      vertex -51.8212 -39.3681 3
      vertex -51.1248 -40.1096 1
      vertex -51.1248 -40.1096 3
    endloop
  endfacet
  facet normal -0.42578 -0.904827 0
    outer loop
      vertex -49.4822 -41.3031 1
      vertex -48.5618 -41.7362 3
      vertex -49.4822 -41.3031 3
    endloop
  endfacet
  facet normal -0.42578 -0.904827 -0
    outer loop
      vertex -48.5618 -41.7362 3
      vertex -49.4822 -41.3031 1
      vertex -48.5618 -41.7362 1
    endloop
  endfacet
  facet normal -0.535828 -0.844327 0
    outer loop
      vertex -50.3411 -40.758 1
      vertex -49.4822 -41.3031 3
      vertex -50.3411 -40.758 3
    endloop
  endfacet
  facet normal -0.535828 -0.844327 -0
    outer loop
      vertex -49.4822 -41.3031 3
      vertex -50.3411 -40.758 1
      vertex -49.4822 -41.3031 1
    endloop
  endfacet
  facet normal -0.929777 -0.368124 0
    outer loop
      vertex -52.9091 -37.6538 1
      vertex -53.2836 -36.708 3
      vertex -53.2836 -36.708 1
    endloop
  endfacet
  facet normal -0.929777 -0.368124 0
    outer loop
      vertex -53.2836 -36.708 3
      vertex -52.9091 -37.6538 1
      vertex -52.9091 -37.6538 3
    endloop
  endfacet
  facet normal -0.809016 -0.587786 0
    outer loop
      vertex -51.8212 -39.3681 1
      vertex -52.4191 -38.5452 3
      vertex -52.4191 -38.5452 1
    endloop
  endfacet
  facet normal -0.809016 -0.587786 0
    outer loop
      vertex -52.4191 -38.5452 3
      vertex -51.8212 -39.3681 1
      vertex -51.8212 -39.3681 3
    endloop
  endfacet
  facet normal -0.309014 -0.951058 0
    outer loop
      vertex -48.5618 -41.7362 1
      vertex -47.5944 -42.0505 3
      vertex -48.5618 -41.7362 3
    endloop
  endfacet
  facet normal -0.309014 -0.951058 -0
    outer loop
      vertex -47.5944 -42.0505 3
      vertex -48.5618 -41.7362 1
      vertex -47.5944 -42.0505 1
    endloop
  endfacet
  facet normal -0.187385 -0.982287 0
    outer loop
      vertex -47.5944 -42.0505 1
      vertex -46.5952 -42.2411 3
      vertex -47.5944 -42.0505 3
    endloop
  endfacet
  facet normal -0.187385 -0.982287 -0
    outer loop
      vertex -46.5952 -42.2411 3
      vertex -47.5944 -42.0505 1
      vertex -46.5952 -42.2411 1
    endloop
  endfacet
  facet normal -0.637424 -0.770513 0
    outer loop
      vertex -51.1248 -40.1096 1
      vertex -50.3411 -40.758 3
      vertex -51.1248 -40.1096 3
    endloop
  endfacet
  facet normal -0.637424 -0.770513 -0
    outer loop
      vertex -50.3411 -40.758 3
      vertex -51.1248 -40.1096 1
      vertex -50.3411 -40.758 1
    endloop
  endfacet
  facet normal -0.968583 -0.248689 0
    outer loop
      vertex -53.2836 -36.708 1
      vertex -53.5365 -35.7228 3
      vertex -53.5365 -35.7228 1
    endloop
  endfacet
  facet normal -0.968583 -0.248689 0
    outer loop
      vertex -53.5365 -35.7228 3
      vertex -53.2836 -36.708 1
      vertex -53.2836 -36.708 3
    endloop
  endfacet
  facet normal -0.992115 -0.125334 0
    outer loop
      vertex -53.5365 -35.7228 1
      vertex -53.664 -34.7136 3
      vertex -53.664 -34.7136 1
    endloop
  endfacet
  facet normal -0.992115 -0.125334 0
    outer loop
      vertex -53.664 -34.7136 3
      vertex -53.5365 -35.7228 1
      vertex -53.5365 -35.7228 3
    endloop
  endfacet
  facet normal -0.876306 -0.481754 0
    outer loop
      vertex -52.4191 -38.5452 1
      vertex -52.9091 -37.6538 3
      vertex -52.9091 -37.6538 1
    endloop
  endfacet
  facet normal -0.876306 -0.481754 0
    outer loop
      vertex -52.9091 -37.6538 3
      vertex -52.4191 -38.5452 1
      vertex -52.4191 -38.5452 3
    endloop
  endfacet
  facet normal -1 0 0
    outer loop
      vertex -45.58 45.789 1
      vertex -45.58 45.805 3
      vertex -45.58 45.805 1
    endloop
  endfacet
  facet normal -1 -0 0
    outer loop
      vertex -45.58 45.805 3
      vertex -45.58 45.789 1
      vertex -45.58 45.789 3
    endloop
  endfacet
  facet normal 0 1 -0
    outer loop
      vertex -45.58 45.789 1
      vertex -46.0886 45.789 3
      vertex -45.58 45.789 3
    endloop
  endfacet
  facet normal 0 1 0
    outer loop
      vertex -46.0886 45.789 3
      vertex -45.58 45.789 1
      vertex -46.0886 45.789 1
    endloop
  endfacet
  facet normal -0.684546 0.72897 0
    outer loop
      vertex -50.7431 43.9462 1
      vertex -51.4846 43.2498 3
      vertex -50.7431 43.9462 3
    endloop
  endfacet
  facet normal -0.684546 0.72897 0
    outer loop
      vertex -51.4846 43.2498 3
      vertex -50.7431 43.9462 1
      vertex -51.4846 43.2498 1
    endloop
  endfacet
  facet normal -0.90483 0.425774 0
    outer loop
      vertex -52.8203 41.305 1
      vertex -52.6781 41.6072 3
      vertex -52.6781 41.6072 1
    endloop
  endfacet
  facet normal -0.90483 0.425774 0
    outer loop
      vertex -52.6781 41.6072 3
      vertex -52.8203 41.305 1
      vertex -52.8203 41.305 3
    endloop
  endfacet
  facet normal -0.844327 0.535828 0
    outer loop
      vertex -52.6781 41.6072 1
      vertex -52.133 42.4661 3
      vertex -52.133 42.4661 1
    endloop
  endfacet
  facet normal -0.844327 0.535828 0
    outer loop
      vertex -52.133 42.4661 3
      vertex -52.6781 41.6072 1
      vertex -52.6781 41.6072 3
    endloop
  endfacet
  facet normal -0.368124 0.929777 0
    outer loop
      vertex -48.083 45.4086 1
      vertex -49.0288 45.0341 3
      vertex -48.083 45.4086 3
    endloop
  endfacet
  facet normal -0.368124 0.929777 0
    outer loop
      vertex -49.0288 45.0341 3
      vertex -48.083 45.4086 1
      vertex -49.0288 45.0341 1
    endloop
  endfacet
  facet normal -0.587786 0.809016 0
    outer loop
      vertex -49.9202 44.5441 1
      vertex -50.7431 43.9462 3
      vertex -49.9202 44.5441 3
    endloop
  endfacet
  facet normal -0.587786 0.809016 0
    outer loop
      vertex -50.7431 43.9462 3
      vertex -49.9202 44.5441 1
      vertex -50.7431 43.9462 1
    endloop
  endfacet
  facet normal -0.770513 0.637424 0
    outer loop
      vertex -52.133 42.4661 1
      vertex -51.4846 43.2498 3
      vertex -51.4846 43.2498 1
    endloop
  endfacet
  facet normal -0.770513 0.637424 0
    outer loop
      vertex -51.4846 43.2498 3
      vertex -52.133 42.4661 1
      vertex -52.133 42.4661 3
    endloop
  endfacet
  facet normal -0.248689 0.968583 0
    outer loop
      vertex -47.0978 45.6615 1
      vertex -48.083 45.4086 3
      vertex -47.0978 45.6615 3
    endloop
  endfacet
  facet normal -0.248689 0.968583 0
    outer loop
      vertex -48.083 45.4086 3
      vertex -47.0978 45.6615 1
      vertex -48.083 45.4086 1
    endloop
  endfacet
  facet normal -0.125334 0.992115 0
    outer loop
      vertex -46.0886 45.789 1
      vertex -47.0978 45.6615 3
      vertex -46.0886 45.789 3
    endloop
  endfacet
  facet normal -0.125334 0.992115 0
    outer loop
      vertex -47.0978 45.6615 3
      vertex -46.0886 45.789 1
      vertex -47.0978 45.6615 1
    endloop
  endfacet
  facet normal -0.481754 0.876306 0
    outer loop
      vertex -49.0288 45.0341 1
      vertex -49.9202 44.5441 3
      vertex -49.0288 45.0341 3
    endloop
  endfacet
  facet normal -0.481754 0.876306 0
    outer loop
      vertex -49.9202 44.5441 3
      vertex -49.0288 45.0341 1
      vertex -49.9202 44.5441 1
    endloop
  endfacet
  facet normal -1 0 0
    outer loop
      vertex -53.68 -34.205 1
      vertex -53.68 1.805 3
      vertex -53.68 1.805 1
    endloop
  endfacet
  facet normal -1 -0 0
    outer loop
      vertex -53.68 1.805 3
      vertex -53.68 -34.205 1
      vertex -53.68 -34.205 3
    endloop
  endfacet
  facet normal 0 0 -1
    outer loop
      vertex -44.22 41.305 1
      vertex -46.0886 45.789 1
      vertex -45.58 45.789 1
    endloop
  endfacet
  facet normal 0 0 -1
    outer loop
      vertex -44.22 41.305 1
      vertex -47.0978 45.6615 1
      vertex -46.0886 45.789 1
    endloop
  endfacet
  facet normal 0 0 -1
    outer loop
      vertex -44.22 41.305 1
      vertex -48.083 45.4086 1
      vertex -47.0978 45.6615 1
    endloop
  endfacet
  facet normal 0 0 -1
    outer loop
      vertex -44.22 41.305 1
      vertex -49.0288 45.0341 1
      vertex -48.083 45.4086 1
    endloop
  endfacet
  facet normal 0 0 -1
    outer loop
      vertex -44.22 41.305 1
      vertex -49.9202 44.5441 1
      vertex -49.0288 45.0341 1
    endloop
  endfacet
  facet normal 0 0 -1
    outer loop
      vertex -44.22 41.305 1
      vertex -50.7431 43.9462 1
      vertex -49.9202 44.5441 1
    endloop
  endfacet
  facet normal 0 0 -1
    outer loop
      vertex -44.22 41.305 1
      vertex -51.4846 43.2498 1
      vertex -50.7431 43.9462 1
    endloop
  endfacet
  facet normal 0 0 -1
    outer loop
      vertex -44.22 41.305 1
      vertex -52.133 42.4661 1
      vertex -51.4846 43.2498 1
    endloop
  endfacet
  facet normal 0 0 -1
    outer loop
      vertex -44.22 41.305 1
      vertex -52.6781 41.6072 1
      vertex -52.133 42.4661 1
    endloop
  endfacet
  facet normal 0 -0 -1
    outer loop
      vertex -52.6781 41.6072 1
      vertex -44.22 41.305 1
      vertex -52.8203 41.305 1
    endloop
  endfacet
  facet normal 0 0 -1
    outer loop
      vertex -45.63 -42.3019 1
      vertex 35.73 -42.2765 1
      vertex 35.73 -42.305 1
    endloop
  endfacet
  facet normal 0 0 -1
    outer loop
      vertex 35.73 -42.2765 1
      vertex 13.07 30.055 1
      vertex 19.07 30.055 1
    endloop
  endfacet
  facet normal -0 0 -1
    outer loop
      vertex 13.07 30.055 1
      vertex -40.07 29.344 1
      vertex 13.07 36.055 1
    endloop
  endfacet
  facet normal 0 0 -1
    outer loop
      vertex 35.73 -42.2765 1
      vertex -44.22 1.805 1
      vertex 13.07 30.055 1
    endloop
  endfacet
  facet normal 0 0 -1
    outer loop
      vertex 13.07 30.055 1
      vertex -44.22 1.805 1
      vertex -40.07 29.344 1
    endloop
  endfacet
  facet normal 0 0 -1
    outer loop
      vertex -45.63 -42.3019 1
      vertex 35.73 -42.305 1
      vertex -45.63 -42.305 1
    endloop
  endfacet
  facet normal -0 0 -1
    outer loop
      vertex 35.73 -42.2765 1
      vertex -45.63 -42.3019 1
      vertex -44.22 1.805 1
    endloop
  endfacet
  facet normal 0 0 -1
    outer loop
      vertex -53.664 -34.205 1
      vertex -45.63 -42.3019 1
      vertex -46.5952 -42.2411 1
    endloop
  endfacet
  facet normal 0 0 -1
    outer loop
      vertex -53.664 -34.205 1
      vertex -46.5952 -42.2411 1
      vertex -47.5944 -42.0505 1
    endloop
  endfacet
  facet normal 0 0 -1
    outer loop
      vertex -53.664 -34.205 1
      vertex -47.5944 -42.0505 1
      vertex -48.5618 -41.7362 1
    endloop
  endfacet
  facet normal 0 0 -1
    outer loop
      vertex -53.664 -34.205 1
      vertex -48.5618 -41.7362 1
      vertex -49.4822 -41.3031 1
    endloop
  endfacet
  facet normal 0 0 -1
    outer loop
      vertex -53.664 -34.205 1
      vertex -49.4822 -41.3031 1
      vertex -50.3411 -40.758 1
    endloop
  endfacet
  facet normal 0 0 -1
    outer loop
      vertex -53.664 -34.205 1
      vertex -50.3411 -40.758 1
      vertex -51.1248 -40.1096 1
    endloop
  endfacet
  facet normal 0 0 -1
    outer loop
      vertex -53.664 -34.205 1
      vertex -51.1248 -40.1096 1
      vertex -51.8212 -39.3681 1
    endloop
  endfacet
  facet normal 0 0 -1
    outer loop
      vertex -53.664 -34.205 1
      vertex -51.8212 -39.3681 1
      vertex -52.4191 -38.5452 1
    endloop
  endfacet
  facet normal 0 0 -1
    outer loop
      vertex -53.664 -34.205 1
      vertex -52.4191 -38.5452 1
      vertex -52.9091 -37.6538 1
    endloop
  endfacet
  facet normal 0 0 -1
    outer loop
      vertex -53.664 -34.205 1
      vertex -52.9091 -37.6538 1
      vertex -53.2836 -36.708 1
    endloop
  endfacet
  facet normal 0 0 -1
    outer loop
      vertex -53.664 -34.205 1
      vertex -53.2836 -36.708 1
      vertex -53.5365 -35.7228 1
    endloop
  endfacet
  facet normal 0 0 -1
    outer loop
      vertex -53.664 -34.205 1
      vertex -53.5365 -35.7228 1
      vertex -53.664 -34.7136 1
    endloop
  endfacet
  facet normal 0 0 -1
    outer loop
      vertex -45.63 -42.3019 1
      vertex -53.664 -34.205 1
      vertex -44.22 1.805 1
    endloop
  endfacet
  facet normal 0 0 -1
    outer loop
      vertex -53.68 1.805 1
      vertex -53.664 -34.205 1
      vertex -53.68 -34.205 1
    endloop
  endfacet
  facet normal 0 0 -1
    outer loop
      vertex -53.664 -34.205 1
      vertex -53.68 1.805 1
      vertex -44.22 1.805 1
    endloop
  endfacet
  facet normal 0 0 -1
    outer loop
      vertex 50.1769 -27.905 1
      vertex 50.18 31.355 1
      vertex 50.18 -27.905 1
    endloop
  endfacet
  facet normal 0 0 -1
    outer loop
      vertex 50.1769 -27.905 1
      vertex 50.1515 31.355 1
      vertex 50.18 31.355 1
    endloop
  endfacet
  facet normal 0 0 -1
    outer loop
      vertex 35.73 -42.2765 1
      vertex 50.1769 -27.905 1
      vertex 50.0661 -29.6661 1
    endloop
  endfacet
  facet normal 0 0 -1
    outer loop
      vertex 50.1769 -27.905 1
      vertex 19.07 30.055 1
      vertex 50.1515 31.355 1
    endloop
  endfacet
  facet normal 0 -0 -1
    outer loop
      vertex 35.78 45.8019 1
      vertex 50.1515 31.355 1
      vertex 19.07 30.055 1
    endloop
  endfacet
  facet normal 0 0 -1
    outer loop
      vertex 35.73 -42.2765 1
      vertex 50.0661 -29.6661 1
      vertex 49.726 -31.4486 1
    endloop
  endfacet
  facet normal -0 -0 -1
    outer loop
      vertex 49.924 34.0627 1
      vertex 50.1515 31.355 1
      vertex 35.78 45.8019 1
    endloop
  endfacet
  facet normal 0 0 -1
    outer loop
      vertex 35.73 -42.2765 1
      vertex 49.726 -31.4486 1
      vertex 49.1653 -33.1744 1
    endloop
  endfacet
  facet normal 0 0 -1
    outer loop
      vertex 50.1515 31.355 1
      vertex 49.924 34.0627 1
      vertex 50.1515 32.2623 1
    endloop
  endfacet
  facet normal 0 0 -1
    outer loop
      vertex 35.73 -42.2765 1
      vertex 49.1653 -33.1744 1
      vertex 48.3926 -34.8163 1
    endloop
  endfacet
  facet normal 0 0 -1
    outer loop
      vertex 49.924 34.0627 1
      vertex 35.78 45.8019 1
      vertex 49.4728 35.8203 1
    endloop
  endfacet
  facet normal 0 0 -1
    outer loop
      vertex 35.73 -42.2765 1
      vertex 48.3926 -34.8163 1
      vertex 47.4203 -36.3485 1
    endloop
  endfacet
  facet normal 0 0 -1
    outer loop
      vertex 49.4728 35.8203 1
      vertex 35.78 45.8019 1
      vertex 48.8048 37.5075 1
    endloop
  endfacet
  facet normal 0 0 -1
    outer loop
      vertex 35.73 -42.2765 1
      vertex 47.4203 -36.3485 1
      vertex 46.2636 -37.7467 1
    endloop
  endfacet
  facet normal 0 0 -1
    outer loop
      vertex 48.8048 37.5075 1
      vertex 35.78 45.8019 1
      vertex 47.9305 39.0977 1
    endloop
  endfacet
  facet normal 0 0 -1
    outer loop
      vertex 35.73 -42.2765 1
      vertex 46.2636 -37.7467 1
      vertex 44.9408 -38.9889 1
    endloop
  endfacet
  facet normal 0 0 -1
    outer loop
      vertex 47.9305 39.0977 1
      vertex 35.78 45.8019 1
      vertex 46.8639 40.5658 1
    endloop
  endfacet
  facet normal 0 0 -1
    outer loop
      vertex 35.73 -42.2765 1
      vertex 44.9408 -38.9889 1
      vertex 43.4727 -40.0555 1
    endloop
  endfacet
  facet normal 0 0 -1
    outer loop
      vertex 46.8639 40.5658 1
      vertex 35.78 45.8019 1
      vertex 45.6217 41.8886 1
    endloop
  endfacet
  facet normal 0 0 -1
    outer loop
      vertex 35.73 -42.2765 1
      vertex 43.4727 -40.0555 1
      vertex 41.8825 -40.9298 1
    endloop
  endfacet
  facet normal 0 0 -1
    outer loop
      vertex 45.6217 41.8886 1
      vertex 35.78 45.8019 1
      vertex 44.2235 43.0453 1
    endloop
  endfacet
  facet normal 0 0 -1
    outer loop
      vertex 35.73 -42.2765 1
      vertex 41.8825 -40.9298 1
      vertex 40.1953 -41.5978 1
    endloop
  endfacet
  facet normal 0 0 -1
    outer loop
      vertex 44.2235 43.0453 1
      vertex 35.78 45.8019 1
      vertex 42.6913 44.0176 1
    endloop
  endfacet
  facet normal 0 0 -1
    outer loop
      vertex 35.73 -42.2765 1
      vertex 40.1953 -41.5978 1
      vertex 38.4377 -42.049 1
    endloop
  endfacet
  facet normal 0 0 -1
    outer loop
      vertex 42.6913 44.0176 1
      vertex 35.78 45.8019 1
      vertex 41.0494 44.7903 1
    endloop
  endfacet
  facet normal 0 0 -1
    outer loop
      vertex 35.73 -42.2765 1
      vertex 38.4377 -42.049 1
      vertex 36.6373 -42.2765 1
    endloop
  endfacet
  facet normal 0 0 -1
    outer loop
      vertex 41.0494 44.7903 1
      vertex 35.78 45.8019 1
      vertex 39.3236 45.351 1
    endloop
  endfacet
  facet normal -0 0 -1
    outer loop
      vertex 50.1769 -27.905 1
      vertex 35.73 -42.2765 1
      vertex 19.07 30.055 1
    endloop
  endfacet
  facet normal 0 0 -1
    outer loop
      vertex 39.3236 45.351 1
      vertex 35.78 45.8019 1
      vertex 37.5411 45.6911 1
    endloop
  endfacet
  facet normal 0 0 -1
    outer loop
      vertex 19.07 36.055 1
      vertex 35.78 45.8019 1
      vertex 19.07 30.055 1
    endloop
  endfacet
  facet normal -0 0 -1
    outer loop
      vertex 35.78 45.8019 1
      vertex 19.07 36.055 1
      vertex 35.78 45.805 1
    endloop
  endfacet
  facet normal 0 0 -1
    outer loop
      vertex 13.07 36.055 1
      vertex 35.78 45.805 1
      vertex 19.07 36.055 1
    endloop
  endfacet
  facet normal 0 0 -1
    outer loop
      vertex -40.07 38.844 1
      vertex 13.07 36.055 1
      vertex -40.07 29.344 1
    endloop
  endfacet
  facet normal 0 0 -1
    outer loop
      vertex -45.58 45.805 1
      vertex 13.07 36.055 1
      vertex -40.07 38.844 1
    endloop
  endfacet
  facet normal 0 0 -1
    outer loop
      vertex -44.22 41.305 1
      vertex -40.07 38.844 1
      vertex -44.22 38.844 1
    endloop
  endfacet
  facet normal 0 0 -1
    outer loop
      vertex -45.58 45.789 1
      vertex -40.07 38.844 1
      vertex -44.22 41.305 1
    endloop
  endfacet
  facet normal 0 0 -1
    outer loop
      vertex -40.07 38.844 1
      vertex -45.58 45.789 1
      vertex -45.58 45.805 1
    endloop
  endfacet
  facet normal 0 0 -1
    outer loop
      vertex 13.07 36.055 1
      vertex -45.58 45.805 1
      vertex 35.78 45.805 1
    endloop
  endfacet
  facet normal -0 0 -1
    outer loop
      vertex -40.07 29.344 1
      vertex -44.22 1.805 1
      vertex -44.22 29.344 1
    endloop
  endfacet
  facet normal 0 -1 0
    outer loop
      vertex -45.63 -42.305 1
      vertex 35.73 -42.305 3
      vertex -45.63 -42.305 3
    endloop
  endfacet
  facet normal 0 -1 -0
    outer loop
      vertex 35.73 -42.305 3
      vertex -45.63 -42.305 1
      vertex 35.73 -42.305 1
    endloop
  endfacet
  facet normal 0 0 1
    outer loop
      vertex -46.4072 -40.753 3
      vertex -45.63 -42.3019 3
      vertex -45.58 -40.805 3
    endloop
  endfacet
  facet normal 0 0 1
    outer loop
      vertex -46.4072 -40.753 3
      vertex -46.5952 -42.2411 3
      vertex -45.63 -42.3019 3
    endloop
  endfacet
  facet normal 0 0 1
    outer loop
      vertex -47.2214 -40.5976 3
      vertex -46.5952 -42.2411 3
      vertex -46.4072 -40.753 3
    endloop
  endfacet
  facet normal 0 0 1
    outer loop
      vertex -47.2214 -40.5976 3
      vertex -47.5944 -42.0505 3
      vertex -46.5952 -42.2411 3
    endloop
  endfacet
  facet normal 0 0 1
    outer loop
      vertex -48.0096 -40.3415 3
      vertex -47.5944 -42.0505 3
      vertex -47.2214 -40.5976 3
    endloop
  endfacet
  facet normal 0 0 1
    outer loop
      vertex -48.0096 -40.3415 3
      vertex -48.5618 -41.7362 3
      vertex -47.5944 -42.0505 3
    endloop
  endfacet
  facet normal 0 0 1
    outer loop
      vertex -48.7596 -39.9886 3
      vertex -48.5618 -41.7362 3
      vertex -48.0096 -40.3415 3
    endloop
  endfacet
  facet normal 0 0 1
    outer loop
      vertex -49.4822 -41.3031 3
      vertex -48.7596 -39.9886 3
      vertex -49.4594 -39.5445 3
    endloop
  endfacet
  facet normal 0 0 1
    outer loop
      vertex -48.7596 -39.9886 3
      vertex -49.4822 -41.3031 3
      vertex -48.5618 -41.7362 3
    endloop
  endfacet
  facet normal 0 0 1
    outer loop
      vertex -50.3411 -40.758 3
      vertex -49.4594 -39.5445 3
      vertex -50.098 -39.0162 3
    endloop
  endfacet
  facet normal 0 0 1
    outer loop
      vertex -49.4594 -39.5445 3
      vertex -50.3411 -40.758 3
      vertex -49.4822 -41.3031 3
    endloop
  endfacet
  facet normal 0 0 1
    outer loop
      vertex -51.1248 -40.1096 3
      vertex -50.098 -39.0162 3
      vertex -50.6654 -38.412 3
    endloop
  endfacet
  facet normal 0 0 1
    outer loop
      vertex -50.098 -39.0162 3
      vertex -51.1248 -40.1096 3
      vertex -50.3411 -40.758 3
    endloop
  endfacet
  facet normal 0 0 1
    outer loop
      vertex -51.8212 -39.3681 3
      vertex -50.6654 -38.412 3
      vertex -51.1526 -37.7415 3
    endloop
  endfacet
  facet normal 0 0 1
    outer loop
      vertex -52.4191 -38.5452 3
      vertex -51.1526 -37.7415 3
      vertex -51.5519 -37.0151 3
    endloop
  endfacet
  facet normal 0 0 1
    outer loop
      vertex -50.6654 -38.412 3
      vertex -51.8212 -39.3681 3
      vertex -51.1248 -40.1096 3
    endloop
  endfacet
  facet normal 0 0 1
    outer loop
      vertex -52.9091 -37.6538 3
      vertex -51.5519 -37.0151 3
      vertex -51.857 -36.2445 3
    endloop
  endfacet
  facet normal 0 0 1
    outer loop
      vertex -53.2836 -36.708 3
      vertex -51.857 -36.2445 3
      vertex -52.0631 -35.4417 3
    endloop
  endfacet
  facet normal 0 0 1
    outer loop
      vertex -53.5365 -35.7228 3
      vertex -52.0631 -35.4417 3
      vertex -52.167 -34.6194 3
    endloop
  endfacet
  facet normal 0 0 1
    outer loop
      vertex -51.1526 -37.7415 3
      vertex -52.4191 -38.5452 3
      vertex -51.8212 -39.3681 3
    endloop
  endfacet
  facet normal -0 0 1
    outer loop
      vertex -50.1709 -34.205 3
      vertex -45.58 -38.805 3
      vertex -44.22 1.805 3
    endloop
  endfacet
  facet normal 0 0 1
    outer loop
      vertex -45.58 -38.805 3
      vertex -50.1709 -34.205 3
      vertex -46.1565 -38.7687 3
    endloop
  endfacet
  facet normal 0 0 1
    outer loop
      vertex -46.1565 -38.7687 3
      vertex -50.1709 -34.205 3
      vertex -46.724 -38.6605 3
    endloop
  endfacet
  facet normal 0 0 1
    outer loop
      vertex -46.724 -38.6605 3
      vertex -50.1709 -34.205 3
      vertex -47.2734 -38.482 3
    endloop
  endfacet
  facet normal 0 0 1
    outer loop
      vertex -47.2734 -38.482 3
      vertex -50.1709 -34.205 3
      vertex -47.7961 -38.236 3
    endloop
  endfacet
  facet normal 0 0 1
    outer loop
      vertex -47.7961 -38.236 3
      vertex -50.1709 -34.205 3
      vertex -48.2838 -37.9265 3
    endloop
  endfacet
  facet normal 0 0 1
    outer loop
      vertex -48.2838 -37.9265 3
      vertex -50.1709 -34.205 3
      vertex -48.7289 -37.5583 3
    endloop
  endfacet
  facet normal 0 0 1
    outer loop
      vertex -48.7289 -37.5583 3
      vertex -50.1709 -34.205 3
      vertex -49.1244 -37.1371 3
    endloop
  endfacet
  facet normal 0 0 1
    outer loop
      vertex -49.1244 -37.1371 3
      vertex -50.1709 -34.205 3
      vertex -49.4639 -36.6698 3
    endloop
  endfacet
  facet normal 0 0 1
    outer loop
      vertex -49.4639 -36.6698 3
      vertex -50.1709 -34.205 3
      vertex -49.7422 -36.1636 3
    endloop
  endfacet
  facet normal 0 0 1
    outer loop
      vertex -49.7422 -36.1636 3
      vertex -50.1709 -34.205 3
      vertex -49.9549 -35.6265 3
    endloop
  endfacet
  facet normal 0 0 1
    outer loop
      vertex -49.9549 -35.6265 3
      vertex -50.1709 -34.205 3
      vertex -50.0985 -35.067 3
    endloop
  endfacet
  facet normal -0 0 1
    outer loop
      vertex -53.68 1.805 3
      vertex -50.1709 -34.205 3
      vertex -44.22 1.805 3
    endloop
  endfacet
  facet normal -0 0 1
    outer loop
      vertex -53.664 -34.205 3
      vertex -52.167 -34.6194 3
      vertex -52.167 -34.205 3
    endloop
  endfacet
  facet normal 0 0 1
    outer loop
      vertex -51.5519 -37.0151 3
      vertex -52.9091 -37.6538 3
      vertex -52.4191 -38.5452 3
    endloop
  endfacet
  facet normal 0 0 1
    outer loop
      vertex -51.857 -36.2445 3
      vertex -53.2836 -36.708 3
      vertex -52.9091 -37.6538 3
    endloop
  endfacet
  facet normal 0 0 1
    outer loop
      vertex -50.1709 -34.205 3
      vertex -53.68 1.805 3
      vertex -52.167 -34.205 3
    endloop
  endfacet
  facet normal 0 0 1
    outer loop
      vertex -52.167 -34.6194 3
      vertex -53.664 -34.205 3
      vertex -53.664 -34.7136 3
    endloop
  endfacet
  facet normal 0 0 1
    outer loop
      vertex -52.0631 -35.4417 3
      vertex -53.5365 -35.7228 3
      vertex -53.2836 -36.708 3
    endloop
  endfacet
  facet normal 0 0 1
    outer loop
      vertex -52.167 -34.205 3
      vertex -53.68 1.805 3
      vertex -53.664 -34.205 3
    endloop
  endfacet
  facet normal 0 0 1
    outer loop
      vertex -53.664 -34.205 3
      vertex -53.68 1.805 3
      vertex -53.68 -34.205 3
    endloop
  endfacet
  facet normal 0 0 1
    outer loop
      vertex -45.58 45.789 3
      vertex -45.9944 44.292 3
      vertex -45.58 44.292 3
    endloop
  endfacet
  facet normal -0 0 1
    outer loop
      vertex -46.0886 45.789 3
      vertex -45.9944 44.292 3
      vertex -45.58 45.789 3
    endloop
  endfacet
  facet normal 0 0 1
    outer loop
      vertex -46.0886 45.789 3
      vertex -46.8167 44.1881 3
      vertex -45.9944 44.292 3
    endloop
  endfacet
  facet normal -0 0 1
    outer loop
      vertex -47.0978 45.6615 3
      vertex -46.8167 44.1881 3
      vertex -46.0886 45.789 3
    endloop
  endfacet
  facet normal 0 0 1
    outer loop
      vertex -47.0978 45.6615 3
      vertex -47.6195 43.982 3
      vertex -46.8167 44.1881 3
    endloop
  endfacet
  facet normal -0 0 1
    outer loop
      vertex -48.083 45.4086 3
      vertex -47.6195 43.982 3
      vertex -47.0978 45.6615 3
    endloop
  endfacet
  facet normal 0 0 1
    outer loop
      vertex -48.083 45.4086 3
      vertex -48.3901 43.6769 3
      vertex -47.6195 43.982 3
    endloop
  endfacet
  facet normal -0 0 1
    outer loop
      vertex -49.0288 45.0341 3
      vertex -48.3901 43.6769 3
      vertex -48.083 45.4086 3
    endloop
  endfacet
  facet normal 0 0 1
    outer loop
      vertex -49.0288 45.0341 3
      vertex -49.1165 43.2776 3
      vertex -48.3901 43.6769 3
    endloop
  endfacet
  facet normal -0 0 1
    outer loop
      vertex -49.9202 44.5441 3
      vertex -49.1165 43.2776 3
      vertex -49.0288 45.0341 3
    endloop
  endfacet
  facet normal 0 0 1
    outer loop
      vertex -49.1165 43.2776 3
      vertex -49.9202 44.5441 3
      vertex -49.787 42.7904 3
    endloop
  endfacet
  facet normal -0 0 1
    outer loop
      vertex -50.7431 43.9462 3
      vertex -49.787 42.7904 3
      vertex -49.9202 44.5441 3
    endloop
  endfacet
  facet normal 0 0 1
    outer loop
      vertex -49.787 42.7904 3
      vertex -50.7431 43.9462 3
      vertex -50.3912 42.223 3
    endloop
  endfacet
  facet normal -0 0 1
    outer loop
      vertex -51.4846 43.2498 3
      vertex -50.3912 42.223 3
      vertex -50.7431 43.9462 3
    endloop
  endfacet
  facet normal 0 0 1
    outer loop
      vertex -50.3912 42.223 3
      vertex -51.4846 43.2498 3
      vertex -50.9195 41.5844 3
    endloop
  endfacet
  facet normal -0 0 1
    outer loop
      vertex -52.133 42.4661 3
      vertex -50.9195 41.5844 3
      vertex -51.4846 43.2498 3
    endloop
  endfacet
  facet normal 0 0 1
    outer loop
      vertex -50.9195 41.5844 3
      vertex -52.133 42.4661 3
      vertex -51.0968 41.305 3
    endloop
  endfacet
  facet normal -0 0 1
    outer loop
      vertex -52.6781 41.6072 3
      vertex -51.0968 41.305 3
      vertex -52.133 42.4661 3
    endloop
  endfacet
  facet normal 0 0 1
    outer loop
      vertex -51.0968 41.305 3
      vertex -52.6781 41.6072 3
      vertex -52.8203 41.305 3
    endloop
  endfacet
  facet normal 0 0 1
    outer loop
      vertex 19.07 36.055 3
      vertex 35.78 45.8019 3
      vertex 35.78 45.805 3
    endloop
  endfacet
  facet normal 0 0 1
    outer loop
      vertex 35.78 45.8019 3
      vertex 19.07 30.055 3
      vertex 35.73 -42.2765 3
    endloop
  endfacet
  facet normal 0 0 1
    outer loop
      vertex 35.78 45.8019 3
      vertex 19.07 36.055 3
      vertex 19.07 30.055 3
    endloop
  endfacet
  facet normal 0 0 1
    outer loop
      vertex 35.78 45.805 3
      vertex 13.07 36.055 3
      vertex 19.07 36.055 3
    endloop
  endfacet
  facet normal 0 0 1
    outer loop
      vertex -40.07 29.344 3
      vertex 13.07 36.055 3
      vertex -40.07 38.844 3
    endloop
  endfacet
  facet normal -0 0 1
    outer loop
      vertex -45.58 45.805 3
      vertex 13.07 36.055 3
      vertex 35.78 45.805 3
    endloop
  endfacet
  facet normal 0 0 1
    outer loop
      vertex 13.07 36.055 3
      vertex -45.58 45.805 3
      vertex -40.07 38.844 3
    endloop
  endfacet
  facet normal -0 0 1
    outer loop
      vertex -45.58 45.789 3
      vertex -40.07 38.844 3
      vertex -45.58 45.805 3
    endloop
  endfacet
  facet normal 0 0 1
    outer loop
      vertex -40.07 38.844 3
      vertex -45.58 45.789 3
      vertex -44.22 41.305 3
    endloop
  endfacet
  facet normal -0 0 1
    outer loop
      vertex -45.58 44.292 3
      vertex -44.22 41.305 3
      vertex -45.58 45.789 3
    endloop
  endfacet
  facet normal -0 0 1
    outer loop
      vertex -45.58 42.2959 3
      vertex -44.22 41.305 3
      vertex -45.58 44.292 3
    endloop
  endfacet
  facet normal -0 0 1
    outer loop
      vertex -45.8688 42.2959 3
      vertex -44.22 41.305 3
      vertex -45.58 42.2959 3
    endloop
  endfacet
  facet normal -0 0 1
    outer loop
      vertex -46.442 42.2235 3
      vertex -44.22 41.305 3
      vertex -45.8688 42.2959 3
    endloop
  endfacet
  facet normal -0 0 1
    outer loop
      vertex -47.0015 42.0799 3
      vertex -44.22 41.305 3
      vertex -46.442 42.2235 3
    endloop
  endfacet
  facet normal -0 0 1
    outer loop
      vertex -47.5386 41.8672 3
      vertex -44.22 41.305 3
      vertex -47.0015 42.0799 3
    endloop
  endfacet
  facet normal -0 0 1
    outer loop
      vertex -48.0448 41.5889 3
      vertex -44.22 41.305 3
      vertex -47.5386 41.8672 3
    endloop
  endfacet
  facet normal 0 0 1
    outer loop
      vertex -44.22 41.305 3
      vertex -48.0448 41.5889 3
      vertex -48.4356 41.305 3
    endloop
  endfacet
  facet normal -0 0 1
    outer loop
      vertex 13.07 30.055 3
      vertex 35.73 -42.2765 3
      vertex 19.07 30.055 3
    endloop
  endfacet
  facet normal -0 0 1
    outer loop
      vertex -44.22 1.805 3
      vertex 35.73 -42.2765 3
      vertex 13.07 30.055 3
    endloop
  endfacet
  facet normal 0 0 1
    outer loop
      vertex 13.07 36.055 3
      vertex -40.07 29.344 3
      vertex 13.07 30.055 3
    endloop
  endfacet
  facet normal 0 0 1
    outer loop
      vertex -44.22 1.805 3
      vertex 13.07 30.055 3
      vertex -40.07 29.344 3
    endloop
  endfacet
  facet normal 0 0 1
    outer loop
      vertex -44.22 1.805 3
      vertex -40.07 29.344 3
      vertex -44.22 29.344 3
    endloop
  endfacet
  facet normal -0 0 1
    outer loop
      vertex -45.58 -38.805 3
      vertex 35.73 -42.2765 3
      vertex -44.22 1.805 3
    endloop
  endfacet
  facet normal -0 0 1
    outer loop
      vertex -45.58 -40.805 3
      vertex 35.73 -42.2765 3
      vertex -45.58 -38.805 3
    endloop
  endfacet
  facet normal 0 0 1
    outer loop
      vertex 35.73 -42.2765 3
      vertex -45.58 -40.805 3
      vertex 35.73 -42.305 3
    endloop
  endfacet
  facet normal 0 0 1
    outer loop
      vertex -45.63 -42.305 3
      vertex -45.58 -40.805 3
      vertex -45.63 -42.3019 3
    endloop
  endfacet
  facet normal 0 0 1
    outer loop
      vertex -45.58 -40.805 3
      vertex -45.63 -42.305 3
      vertex 35.73 -42.305 3
    endloop
  endfacet
  facet normal 0 0 1
    outer loop
      vertex -40.07 38.844 3
      vertex -44.22 41.305 3
      vertex -44.22 38.844 3
    endloop
  endfacet
  facet normal 0 0 1
    outer loop
      vertex -50.0985 -35.067 3
      vertex -50.1709 -34.205 3
      vertex -50.1709 -34.4938 3
    endloop
  endfacet
  facet normal 0 0 1
    outer loop
      vertex -52.167 -34.6194 3
      vertex -53.664 -34.7136 3
      vertex -53.5365 -35.7228 3
    endloop
  endfacet
  facet normal 0 0 1
    outer loop
      vertex 50.0661 -29.6661 3
      vertex 45.9211 -31.855 3
      vertex 48.0199 -31.855 3
    endloop
  endfacet
  facet normal 0 0 1
    outer loop
      vertex 50.1515 31.355 3
      vertex 45.9001 35.355 3
      vertex 45.9211 -31.855 3
    endloop
  endfacet
  facet normal 0 0 1
    outer loop
      vertex 39.73 41.5461 3
      vertex 45.9211 -31.855 3
      vertex 45.9001 35.355 3
    endloop
  endfacet
  facet normal 0 0 1
    outer loop
      vertex 44.9754 37.2223 3
      vertex 45.9001 35.355 3
      vertex 45.6379 36.0173 3
    endloop
  endfacet
  facet normal 0 0 1
    outer loop
      vertex 39.73 -38.0251 3
      vertex 45.9211 -31.855 3
      vertex 39.73 41.5461 3
    endloop
  endfacet
  facet normal 0 0 1
    outer loop
      vertex 45.9001 35.355 3
      vertex 44.9754 37.2223 3
      vertex 39.73 41.5461 3
    endloop
  endfacet
  facet normal 0 -0 1
    outer loop
      vertex 45.3256 -33.1302 3
      vertex 45.9211 -31.855 3
      vertex 39.73 -38.0251 3
    endloop
  endfacet
  facet normal 0 0 1
    outer loop
      vertex 39.73 41.5461 3
      vertex 44.9754 37.2223 3
      vertex 44.1671 38.3348 3
    endloop
  endfacet
  facet normal 0 0 1
    outer loop
      vertex 45.9211 -31.855 3
      vertex 45.3256 -33.1302 3
      vertex 45.9111 -31.886 3
    endloop
  endfacet
  facet normal 0 0 1
    outer loop
      vertex 39.73 41.5461 3
      vertex 44.1671 38.3348 3
      vertex 43.2258 39.3372 3
    endloop
  endfacet
  facet normal 0 0 1
    outer loop
      vertex 45.3256 -33.1302 3
      vertex 39.73 -38.0251 3
      vertex 44.5887 -34.2912 3
    endloop
  endfacet
  facet normal 0 0 1
    outer loop
      vertex 39.73 41.5461 3
      vertex 43.2258 39.3372 3
      vertex 42.1662 40.2137 3
    endloop
  endfacet
  facet normal 0 0 1
    outer loop
      vertex 44.5887 -34.2912 3
      vertex 39.73 -38.0251 3
      vertex 43.7122 -35.3508 3
    endloop
  endfacet
  facet normal 0 0 1
    outer loop
      vertex 39.73 41.5461 3
      vertex 42.1662 40.2137 3
      vertex 41.0052 40.9506 3
    endloop
  endfacet
  facet normal 0 0 1
    outer loop
      vertex 43.7122 -35.3508 3
      vertex 39.73 -38.0251 3
      vertex 42.7098 -36.2921 3
    endloop
  endfacet
  facet normal 0 0 1
    outer loop
      vertex 39.73 41.5461 3
      vertex 41.0052 40.9506 3
      vertex 39.761 41.5361 3
    endloop
  endfacet
  facet normal 0 0 1
    outer loop
      vertex 42.7098 -36.2921 3
      vertex 39.73 -38.0251 3
      vertex 41.5973 -37.1004 3
    endloop
  endfacet
  facet normal 0 0 1
    outer loop
      vertex 41.5973 -37.1004 3
      vertex 39.73 -38.0251 3
      vertex 40.3923 -37.7629 3
    endloop
  endfacet
  facet normal -0 0 1
    outer loop
      vertex 45.9001 35.355 3
      vertex 50.1515 32.2623 3
      vertex 48.0466 35.355 3
    endloop
  endfacet
  facet normal 0 0 1
    outer loop
      vertex 48.0466 35.355 3
      vertex 50.1515 32.2623 3
      vertex 49.924 34.0627 3
    endloop
  endfacet
  facet normal 0 0 1
    outer loop
      vertex 50.1515 32.2623 3
      vertex 45.9001 35.355 3
      vertex 50.1515 31.355 3
    endloop
  endfacet
  facet normal -0 0 1
    outer loop
      vertex 48.0466 35.355 3
      vertex 49.924 34.0627 3
      vertex 49.4728 35.8203 3
    endloop
  endfacet
  facet normal 0 0 1
    outer loop
      vertex 50.1769 -27.905 3
      vertex 45.9211 -31.855 3
      vertex 50.0661 -29.6661 3
    endloop
  endfacet
  facet normal 0 0 1
    outer loop
      vertex 48.0462 35.3568 3
      vertex 49.4728 35.8203 3
      vertex 48.8048 37.5075 3
    endloop
  endfacet
  facet normal 0 0 1
    outer loop
      vertex 50.0661 -29.6661 3
      vertex 48.0199 -31.855 3
      vertex 49.726 -31.4486 3
    endloop
  endfacet
  facet normal 0 0 1
    outer loop
      vertex 49.726 -31.4486 3
      vertex 48.0199 -31.855 3
      vertex 49.1653 -33.1744 3
    endloop
  endfacet
  facet normal 0 0 1
    outer loop
      vertex 49.4728 35.8203 3
      vertex 48.0462 35.3568 3
      vertex 48.0466 35.355 3
    endloop
  endfacet
  facet normal 0 0 1
    outer loop
      vertex 47.4475 36.8688 3
      vertex 48.8048 37.5075 3
      vertex 47.9305 39.0977 3
    endloop
  endfacet
  facet normal 0 0 1
    outer loop
      vertex 48.8048 37.5075 3
      vertex 47.4475 36.8688 3
      vertex 48.0462 35.3568 3
    endloop
  endfacet
  facet normal 0 0 1
    outer loop
      vertex 46.664 38.294 3
      vertex 47.9305 39.0977 3
      vertex 46.8639 40.5658 3
    endloop
  endfacet
  facet normal 0 0 1
    outer loop
      vertex 47.9305 39.0977 3
      vertex 46.664 38.294 3
      vertex 47.4475 36.8688 3
    endloop
  endfacet
  facet normal 0 0 1
    outer loop
      vertex 46.8639 40.5658 3
      vertex 45.7081 39.6096 3
      vertex 46.664 38.294 3
    endloop
  endfacet
  facet normal 0 0 1
    outer loop
      vertex 45.6217 41.8886 3
      vertex 45.7081 39.6096 3
      vertex 46.8639 40.5658 3
    endloop
  endfacet
  facet normal 0 0 1
    outer loop
      vertex 45.6217 41.8886 3
      vertex 44.5949 40.7951 3
      vertex 45.7081 39.6096 3
    endloop
  endfacet
  facet normal 0 0 1
    outer loop
      vertex 44.2235 43.0453 3
      vertex 44.5949 40.7951 3
      vertex 45.6217 41.8886 3
    endloop
  endfacet
  facet normal 0 0 1
    outer loop
      vertex 44.2235 43.0453 3
      vertex 43.3418 41.8318 3
      vertex 44.5949 40.7951 3
    endloop
  endfacet
  facet normal 0 0 1
    outer loop
      vertex 42.6913 44.0176 3
      vertex 43.3418 41.8318 3
      vertex 44.2235 43.0453 3
    endloop
  endfacet
  facet normal 0 0 1
    outer loop
      vertex 42.6913 44.0176 3
      vertex 41.9687 42.7032 3
      vertex 43.3418 41.8318 3
    endloop
  endfacet
  facet normal 0 0 1
    outer loop
      vertex 41.0494 44.7903 3
      vertex 41.9687 42.7032 3
      vertex 42.6913 44.0176 3
    endloop
  endfacet
  facet normal 0 0 1
    outer loop
      vertex 41.0494 44.7903 3
      vertex 40.4972 43.3956 3
      vertex 41.9687 42.7032 3
    endloop
  endfacet
  facet normal 0 0 1
    outer loop
      vertex 41.0494 44.7903 3
      vertex 39.73 43.6449 3
      vertex 40.4972 43.3956 3
    endloop
  endfacet
  facet normal 0 0 1
    outer loop
      vertex 37.5411 45.6911 3
      vertex 39.73 41.5461 3
      vertex 39.73 43.6449 3
    endloop
  endfacet
  facet normal 0 0 1
    outer loop
      vertex 39.73 41.5461 3
      vertex 35.78 45.8019 3
      vertex 39.73 -38.0251 3
    endloop
  endfacet
  facet normal 0 0 1
    outer loop
      vertex 37.5411 45.6911 3
      vertex 39.73 43.6449 3
      vertex 39.3236 45.351 3
    endloop
  endfacet
  facet normal 0 0 1
    outer loop
      vertex 39.3236 45.351 3
      vertex 39.73 43.6449 3
      vertex 41.0494 44.7903 3
    endloop
  endfacet
  facet normal 0 0 1
    outer loop
      vertex 50.18 31.355 3
      vertex 50.1769 -27.905 3
      vertex 50.18 -27.905 3
    endloop
  endfacet
  facet normal -0 0 1
    outer loop
      vertex 50.1515 31.355 3
      vertex 50.1769 -27.905 3
      vertex 50.18 31.355 3
    endloop
  endfacet
  facet normal 0 0 1
    outer loop
      vertex 45.9211 -31.855 3
      vertex 50.1769 -27.905 3
      vertex 50.1515 31.355 3
    endloop
  endfacet
  facet normal -0 0 1
    outer loop
      vertex 47.7706 -32.6222 3
      vertex 49.1653 -33.1744 3
      vertex 48.0199 -31.855 3
    endloop
  endfacet
  facet normal 0 0 1
    outer loop
      vertex 49.1653 -33.1744 3
      vertex 47.7706 -32.6222 3
      vertex 48.3926 -34.8163 3
    endloop
  endfacet
  facet normal -0 0 1
    outer loop
      vertex 47.0782 -34.0937 3
      vertex 48.3926 -34.8163 3
      vertex 47.7706 -32.6222 3
    endloop
  endfacet
  facet normal 0 0 1
    outer loop
      vertex 48.3926 -34.8163 3
      vertex 47.0782 -34.0937 3
      vertex 47.4203 -36.3485 3
    endloop
  endfacet
  facet normal -0 0 1
    outer loop
      vertex 46.2068 -35.4668 3
      vertex 47.4203 -36.3485 3
      vertex 47.0782 -34.0937 3
    endloop
  endfacet
  facet normal 0 0 1
    outer loop
      vertex 47.4203 -36.3485 3
      vertex 46.2068 -35.4668 3
      vertex 46.2636 -37.7467 3
    endloop
  endfacet
  facet normal -0 0 1
    outer loop
      vertex 45.1701 -36.7199 3
      vertex 46.2636 -37.7467 3
      vertex 46.2068 -35.4668 3
    endloop
  endfacet
  facet normal 0 0 1
    outer loop
      vertex 45.1701 -36.7199 3
      vertex 44.9408 -38.9889 3
      vertex 46.2636 -37.7467 3
    endloop
  endfacet
  facet normal -0 0 1
    outer loop
      vertex 43.9846 -37.8331 3
      vertex 44.9408 -38.9889 3
      vertex 45.1701 -36.7199 3
    endloop
  endfacet
  facet normal 0 0 1
    outer loop
      vertex 43.9846 -37.8331 3
      vertex 43.4727 -40.0555 3
      vertex 44.9408 -38.9889 3
    endloop
  endfacet
  facet normal -0 0 1
    outer loop
      vertex 42.669 -38.789 3
      vertex 43.4727 -40.0555 3
      vertex 43.9846 -37.8331 3
    endloop
  endfacet
  facet normal 0 0 1
    outer loop
      vertex 42.669 -38.789 3
      vertex 41.8825 -40.9298 3
      vertex 43.4727 -40.0555 3
    endloop
  endfacet
  facet normal -0 0 1
    outer loop
      vertex 41.2438 -39.5725 3
      vertex 41.8825 -40.9298 3
      vertex 42.669 -38.789 3
    endloop
  endfacet
  facet normal 0 0 1
    outer loop
      vertex 41.2438 -39.5725 3
      vertex 40.1953 -41.5978 3
      vertex 41.8825 -40.9298 3
    endloop
  endfacet
  facet normal -0 0 1
    outer loop
      vertex 39.7318 -40.1712 3
      vertex 40.1953 -41.5978 3
      vertex 41.2438 -39.5725 3
    endloop
  endfacet
  facet normal -0 0 1
    outer loop
      vertex 39.73 -40.1716 3
      vertex 40.1953 -41.5978 3
      vertex 39.7318 -40.1712 3
    endloop
  endfacet
  facet normal 0 0 1
    outer loop
      vertex 39.73 -40.1716 3
      vertex 38.4377 -42.049 3
      vertex 40.1953 -41.5978 3
    endloop
  endfacet
  facet normal 0 0 1
    outer loop
      vertex 39.73 -38.0251 3
      vertex 35.78 45.8019 3
      vertex 35.73 -42.2765 3
    endloop
  endfacet
  facet normal 0 0 1
    outer loop
      vertex 39.73 41.5461 3
      vertex 37.5411 45.6911 3
      vertex 35.78 45.8019 3
    endloop
  endfacet
  facet normal 0 -0 1
    outer loop
      vertex 36.6373 -42.2765 3
      vertex 39.73 -38.0251 3
      vertex 35.73 -42.2765 3
    endloop
  endfacet
  facet normal 0 0 1
    outer loop
      vertex 39.73 -38.0251 3
      vertex 36.6373 -42.2765 3
      vertex 39.73 -40.1716 3
    endloop
  endfacet
  facet normal 0 0 1
    outer loop
      vertex 39.73 -40.1716 3
      vertex 36.6373 -42.2765 3
      vertex 38.4377 -42.049 3
    endloop
  endfacet
  facet normal 0 1 -0
    outer loop
      vertex 35.78 45.805 1
      vertex -45.58 45.805 3
      vertex 35.78 45.805 3
    endloop
  endfacet
  facet normal 0 1 0
    outer loop
      vertex -45.58 45.805 3
      vertex 35.78 45.805 1
      vertex -45.58 45.805 1
    endloop
  endfacet
  facet normal 1 -0 0
    outer loop
      vertex 35.73 -42.305 3
      vertex 35.73 -42.2765 1
      vertex 35.73 -42.2765 3
    endloop
  endfacet
  facet normal 1 0 0
    outer loop
      vertex 35.73 -42.2765 1
      vertex 35.73 -42.305 3
      vertex 35.73 -42.305 1
    endloop
  endfacet
  facet normal 0 -1 0
    outer loop
      vertex 50.1769 -27.905 1
      vertex 50.18 -27.905 3
      vertex 50.1769 -27.905 3
    endloop
  endfacet
  facet normal 0 -1 -0
    outer loop
      vertex 50.18 -27.905 3
      vertex 50.1769 -27.905 1
      vertex 50.18 -27.905 1
    endloop
  endfacet
  facet normal 0.998027 -0.0627911 0
    outer loop
      vertex 50.0661 -29.6661 3
      vertex 50.1769 -27.905 1
      vertex 50.1769 -27.905 3
    endloop
  endfacet
  facet normal 0.998027 -0.0627911 0
    outer loop
      vertex 50.1769 -27.905 1
      vertex 50.0661 -29.6661 3
      vertex 50.0661 -29.6661 1
    endloop
  endfacet
  facet normal 0 -1 0
    outer loop
      vertex 35.73 -42.2765 1
      vertex 36.6373 -42.2765 3
      vertex 35.73 -42.2765 3
    endloop
  endfacet
  facet normal 0 -1 -0
    outer loop
      vertex 36.6373 -42.2765 3
      vertex 35.73 -42.2765 1
      vertex 36.6373 -42.2765 1
    endloop
  endfacet
  facet normal 0.684547 -0.728968 0
    outer loop
      vertex 44.9408 -38.9889 1
      vertex 46.2636 -37.7467 3
      vertex 44.9408 -38.9889 3
    endloop
  endfacet
  facet normal 0.684547 -0.728968 0
    outer loop
      vertex 46.2636 -37.7467 3
      vertex 44.9408 -38.9889 1
      vertex 46.2636 -37.7467 1
    endloop
  endfacet
  facet normal 0.904828 -0.425778 0
    outer loop
      vertex 48.3926 -34.8163 3
      vertex 49.1653 -33.1744 1
      vertex 49.1653 -33.1744 3
    endloop
  endfacet
  facet normal 0.904828 -0.425778 0
    outer loop
      vertex 49.1653 -33.1744 1
      vertex 48.3926 -34.8163 3
      vertex 48.3926 -34.8163 1
    endloop
  endfacet
  facet normal 0.982287 -0.187381 0
    outer loop
      vertex 49.726 -31.4486 3
      vertex 50.0661 -29.6661 1
      vertex 50.0661 -29.6661 3
    endloop
  endfacet
  facet normal 0.982287 -0.187381 0
    outer loop
      vertex 50.0661 -29.6661 1
      vertex 49.726 -31.4486 3
      vertex 49.726 -31.4486 1
    endloop
  endfacet
  facet normal 0.844328 -0.535827 0
    outer loop
      vertex 47.4203 -36.3485 3
      vertex 48.3926 -34.8163 1
      vertex 48.3926 -34.8163 3
    endloop
  endfacet
  facet normal 0.844328 -0.535827 0
    outer loop
      vertex 48.3926 -34.8163 1
      vertex 47.4203 -36.3485 3
      vertex 47.4203 -36.3485 1
    endloop
  endfacet
  facet normal 0.368123 -0.929777 0
    outer loop
      vertex 40.1953 -41.5978 1
      vertex 41.8825 -40.9298 3
      vertex 40.1953 -41.5978 3
    endloop
  endfacet
  facet normal 0.368123 -0.929777 0
    outer loop
      vertex 41.8825 -40.9298 3
      vertex 40.1953 -41.5978 1
      vertex 41.8825 -40.9298 1
    endloop
  endfacet
  facet normal 0.481754 -0.876306 0
    outer loop
      vertex 41.8825 -40.9298 1
      vertex 43.4727 -40.0555 3
      vertex 41.8825 -40.9298 3
    endloop
  endfacet
  facet normal 0.481754 -0.876306 0
    outer loop
      vertex 43.4727 -40.0555 3
      vertex 41.8825 -40.9298 1
      vertex 43.4727 -40.0555 1
    endloop
  endfacet
  facet normal 0.951057 -0.309017 0
    outer loop
      vertex 49.1653 -33.1744 3
      vertex 49.726 -31.4486 1
      vertex 49.726 -31.4486 3
    endloop
  endfacet
  facet normal 0.951057 -0.309017 0
    outer loop
      vertex 49.726 -31.4486 1
      vertex 49.1653 -33.1744 3
      vertex 49.1653 -33.1744 1
    endloop
  endfacet
  facet normal 0.770513 -0.637424 0
    outer loop
      vertex 46.2636 -37.7467 3
      vertex 47.4203 -36.3485 1
      vertex 47.4203 -36.3485 3
    endloop
  endfacet
  facet normal 0.770513 -0.637424 0
    outer loop
      vertex 47.4203 -36.3485 1
      vertex 46.2636 -37.7467 3
      vertex 46.2636 -37.7467 1
    endloop
  endfacet
  facet normal 0.248689 -0.968583 0
    outer loop
      vertex 38.4377 -42.049 1
      vertex 40.1953 -41.5978 3
      vertex 38.4377 -42.049 3
    endloop
  endfacet
  facet normal 0.248689 -0.968583 0
    outer loop
      vertex 40.1953 -41.5978 3
      vertex 38.4377 -42.049 1
      vertex 40.1953 -41.5978 1
    endloop
  endfacet
  facet normal 0.125333 -0.992115 0
    outer loop
      vertex 36.6373 -42.2765 1
      vertex 38.4377 -42.049 3
      vertex 36.6373 -42.2765 3
    endloop
  endfacet
  facet normal 0.125333 -0.992115 0
    outer loop
      vertex 38.4377 -42.049 3
      vertex 36.6373 -42.2765 1
      vertex 38.4377 -42.049 1
    endloop
  endfacet
  facet normal 0.587786 -0.809016 0
    outer loop
      vertex 43.4727 -40.0555 1
      vertex 44.9408 -38.9889 3
      vertex 43.4727 -40.0555 3
    endloop
  endfacet
  facet normal 0.587786 -0.809016 0
    outer loop
      vertex 44.9408 -38.9889 3
      vertex 43.4727 -40.0555 1
      vertex 44.9408 -38.9889 1
    endloop
  endfacet
  facet normal 0 1 -0
    outer loop
      vertex 50.18 31.355 1
      vertex 50.1515 31.355 3
      vertex 50.18 31.355 3
    endloop
  endfacet
  facet normal 0 1 0
    outer loop
      vertex 50.1515 31.355 3
      vertex 50.18 31.355 1
      vertex 50.1515 31.355 1
    endloop
  endfacet
  facet normal 1 -0 0
    outer loop
      vertex 35.78 45.8019 3
      vertex 35.78 45.805 1
      vertex 35.78 45.805 3
    endloop
  endfacet
  facet normal 1 0 0
    outer loop
      vertex 35.78 45.805 1
      vertex 35.78 45.8019 3
      vertex 35.78 45.8019 1
    endloop
  endfacet
  facet normal 0.0627911 0.998027 -0
    outer loop
      vertex 37.5411 45.6911 1
      vertex 35.78 45.8019 3
      vertex 37.5411 45.6911 3
    endloop
  endfacet
  facet normal 0.0627911 0.998027 0
    outer loop
      vertex 35.78 45.8019 3
      vertex 37.5411 45.6911 1
      vertex 35.78 45.8019 1
    endloop
  endfacet
  facet normal 1 -0 0
    outer loop
      vertex 50.1515 31.355 3
      vertex 50.1515 32.2623 1
      vertex 50.1515 32.2623 3
    endloop
  endfacet
  facet normal 1 0 0
    outer loop
      vertex 50.1515 32.2623 1
      vertex 50.1515 31.355 3
      vertex 50.1515 31.355 1
    endloop
  endfacet
  facet normal 0.728968 0.684547 0
    outer loop
      vertex 46.8639 40.5658 3
      vertex 45.6217 41.8886 1
      vertex 45.6217 41.8886 3
    endloop
  endfacet
  facet normal 0.728968 0.684547 0
    outer loop
      vertex 45.6217 41.8886 1
      vertex 46.8639 40.5658 3
      vertex 46.8639 40.5658 1
    endloop
  endfacet
  facet normal 0.425778 0.904828 -0
    outer loop
      vertex 42.6913 44.0176 1
      vertex 41.0494 44.7903 3
      vertex 42.6913 44.0176 3
    endloop
  endfacet
  facet normal 0.425778 0.904828 0
    outer loop
      vertex 41.0494 44.7903 3
      vertex 42.6913 44.0176 1
      vertex 41.0494 44.7903 1
    endloop
  endfacet
  facet normal 0.187381 0.982287 -0
    outer loop
      vertex 39.3236 45.351 1
      vertex 37.5411 45.6911 3
      vertex 39.3236 45.351 3
    endloop
  endfacet
  facet normal 0.187381 0.982287 0
    outer loop
      vertex 37.5411 45.6911 3
      vertex 39.3236 45.351 1
      vertex 37.5411 45.6911 1
    endloop
  endfacet
  facet normal 0.535827 0.844328 -0
    outer loop
      vertex 44.2235 43.0453 1
      vertex 42.6913 44.0176 3
      vertex 44.2235 43.0453 3
    endloop
  endfacet
  facet normal 0.535827 0.844328 0
    outer loop
      vertex 42.6913 44.0176 3
      vertex 44.2235 43.0453 1
      vertex 42.6913 44.0176 1
    endloop
  endfacet
  facet normal 0.929777 0.368123 0
    outer loop
      vertex 49.4728 35.8203 3
      vertex 48.8048 37.5075 1
      vertex 48.8048 37.5075 3
    endloop
  endfacet
  facet normal 0.929777 0.368123 0
    outer loop
      vertex 48.8048 37.5075 1
      vertex 49.4728 35.8203 3
      vertex 49.4728 35.8203 1
    endloop
  endfacet
  facet normal 0.876306 0.481754 0
    outer loop
      vertex 48.8048 37.5075 3
      vertex 47.9305 39.0977 1
      vertex 47.9305 39.0977 3
    endloop
  endfacet
  facet normal 0.876306 0.481754 0
    outer loop
      vertex 47.9305 39.0977 1
      vertex 48.8048 37.5075 3
      vertex 48.8048 37.5075 1
    endloop
  endfacet
  facet normal 0.309017 0.951056 -0
    outer loop
      vertex 41.0494 44.7903 1
      vertex 39.3236 45.351 3
      vertex 41.0494 44.7903 3
    endloop
  endfacet
  facet normal 0.309017 0.951056 0
    outer loop
      vertex 39.3236 45.351 3
      vertex 41.0494 44.7903 1
      vertex 39.3236 45.351 1
    endloop
  endfacet
  facet normal 0.637424 0.770513 -0
    outer loop
      vertex 45.6217 41.8886 1
      vertex 44.2235 43.0453 3
      vertex 45.6217 41.8886 3
    endloop
  endfacet
  facet normal 0.637424 0.770513 0
    outer loop
      vertex 44.2235 43.0453 3
      vertex 45.6217 41.8886 1
      vertex 44.2235 43.0453 1
    endloop
  endfacet
  facet normal 0.968583 0.248689 0
    outer loop
      vertex 49.924 34.0627 3
      vertex 49.4728 35.8203 1
      vertex 49.4728 35.8203 3
    endloop
  endfacet
  facet normal 0.968583 0.248689 0
    outer loop
      vertex 49.4728 35.8203 1
      vertex 49.924 34.0627 3
      vertex 49.924 34.0627 1
    endloop
  endfacet
  facet normal 0.992115 0.125333 0
    outer loop
      vertex 50.1515 32.2623 3
      vertex 49.924 34.0627 1
      vertex 49.924 34.0627 3
    endloop
  endfacet
  facet normal 0.992115 0.125333 0
    outer loop
      vertex 49.924 34.0627 1
      vertex 50.1515 32.2623 3
      vertex 50.1515 32.2623 1
    endloop
  endfacet
  facet normal 0.809016 0.587786 0
    outer loop
      vertex 47.9305 39.0977 3
      vertex 46.8639 40.5658 1
      vertex 46.8639 40.5658 3
    endloop
  endfacet
  facet normal 0.809016 0.587786 0
    outer loop
      vertex 46.8639 40.5658 1
      vertex 47.9305 39.0977 3
      vertex 47.9305 39.0977 1
    endloop
  endfacet
  facet normal 1 -0 0
    outer loop
      vertex 50.18 -27.905 3
      vertex 50.18 31.355 1
      vertex 50.18 31.355 3
    endloop
  endfacet
  facet normal 1 0 0
    outer loop
      vertex 50.18 31.355 1
      vertex 50.18 -27.905 3
      vertex 50.18 -27.905 1
    endloop
  endfacet
  facet normal 0 1 -0
    outer loop
      vertex -45.58 44.292 3
      vertex -45.9944 44.292 6
      vertex -45.58 44.292 6
    endloop
  endfacet
  facet normal 0 1 0
    outer loop
      vertex -45.9944 44.292 6
      vertex -45.58 44.292 3
      vertex -45.9944 44.292 3
    endloop
  endfacet
  facet normal -0.684546 0.728969 0
    outer loop
      vertex -49.787 42.7904 3
      vertex -50.3912 42.223 6
      vertex -49.787 42.7904 6
    endloop
  endfacet
  facet normal -0.684546 0.728969 0
    outer loop
      vertex -50.3912 42.223 6
      vertex -49.787 42.7904 3
      vertex -50.3912 42.223 3
    endloop
  endfacet
  facet normal -0.770513 0.637424 0
    outer loop
      vertex -50.9195 41.5844 3
      vertex -50.3912 42.223 6
      vertex -50.3912 42.223 3
    endloop
  endfacet
  facet normal -0.770513 0.637424 0
    outer loop
      vertex -50.3912 42.223 6
      vertex -50.9195 41.5844 3
      vertex -50.9195 41.5844 6
    endloop
  endfacet
  facet normal 0 0 1
    outer loop
      vertex -45.58 44.292 6
      vertex -45.8688 42.2959 6
      vertex -45.58 42.2959 6
    endloop
  endfacet
  facet normal -0 0 1
    outer loop
      vertex -45.9944 44.292 6
      vertex -45.8688 42.2959 6
      vertex -45.58 44.292 6
    endloop
  endfacet
  facet normal 0 0 1
    outer loop
      vertex -45.9944 44.292 6
      vertex -46.442 42.2235 6
      vertex -45.8688 42.2959 6
    endloop
  endfacet
  facet normal -0 0 1
    outer loop
      vertex -46.8167 44.1881 6
      vertex -46.442 42.2235 6
      vertex -45.9944 44.292 6
    endloop
  endfacet
  facet normal 0 0 1
    outer loop
      vertex -46.8167 44.1881 6
      vertex -47.0015 42.0799 6
      vertex -46.442 42.2235 6
    endloop
  endfacet
  facet normal -0 0 1
    outer loop
      vertex -47.6195 43.982 6
      vertex -47.0015 42.0799 6
      vertex -46.8167 44.1881 6
    endloop
  endfacet
  facet normal 0 0 1
    outer loop
      vertex -47.0015 42.0799 6
      vertex -47.6195 43.982 6
      vertex -47.5386 41.8672 6
    endloop
  endfacet
  facet normal -0 0 1
    outer loop
      vertex -48.3901 43.6769 6
      vertex -47.5386 41.8672 6
      vertex -47.6195 43.982 6
    endloop
  endfacet
  facet normal 0 0 1
    outer loop
      vertex -47.5386 41.8672 6
      vertex -48.3901 43.6769 6
      vertex -48.0448 41.5889 6
    endloop
  endfacet
  facet normal -0 0 1
    outer loop
      vertex -49.1165 43.2776 6
      vertex -48.0448 41.5889 6
      vertex -48.3901 43.6769 6
    endloop
  endfacet
  facet normal 0 0 1
    outer loop
      vertex -48.0448 41.5889 6
      vertex -49.1165 43.2776 6
      vertex -48.4356 41.305 6
    endloop
  endfacet
  facet normal -0 0 1
    outer loop
      vertex -49.787 42.7904 6
      vertex -48.4356 41.305 6
      vertex -49.1165 43.2776 6
    endloop
  endfacet
  facet normal -0 0 1
    outer loop
      vertex -50.3912 42.223 6
      vertex -48.4356 41.305 6
      vertex -49.787 42.7904 6
    endloop
  endfacet
  facet normal -0 0 1
    outer loop
      vertex -50.9195 41.5844 6
      vertex -48.4356 41.305 6
      vertex -50.3912 42.223 6
    endloop
  endfacet
  facet normal 0 0 1
    outer loop
      vertex -48.4356 41.305 6
      vertex -50.9195 41.5844 6
      vertex -51.0968 41.305 6
    endloop
  endfacet
  facet normal -0.368124 0.929777 0
    outer loop
      vertex -47.6195 43.982 3
      vertex -48.3901 43.6769 6
      vertex -47.6195 43.982 6
    endloop
  endfacet
  facet normal -0.368124 0.929777 0
    outer loop
      vertex -48.3901 43.6769 6
      vertex -47.6195 43.982 3
      vertex -48.3901 43.6769 3
    endloop
  endfacet
  facet normal -0.24869 0.968583 0
    outer loop
      vertex -46.8167 44.1881 3
      vertex -47.6195 43.982 6
      vertex -46.8167 44.1881 6
    endloop
  endfacet
  facet normal -0.24869 0.968583 0
    outer loop
      vertex -47.6195 43.982 6
      vertex -46.8167 44.1881 3
      vertex -47.6195 43.982 3
    endloop
  endfacet
  facet normal -0.844329 0.535825 0
    outer loop
      vertex -51.0968 41.305 3
      vertex -50.9195 41.5844 6
      vertex -50.9195 41.5844 3
    endloop
  endfacet
  facet normal -0.844329 0.535825 0
    outer loop
      vertex -50.9195 41.5844 6
      vertex -51.0968 41.305 3
      vertex -51.0968 41.305 6
    endloop
  endfacet
  facet normal -0.481751 0.876308 0
    outer loop
      vertex -48.3901 43.6769 3
      vertex -49.1165 43.2776 6
      vertex -48.3901 43.6769 6
    endloop
  endfacet
  facet normal -0.481751 0.876308 0
    outer loop
      vertex -49.1165 43.2776 6
      vertex -48.3901 43.6769 3
      vertex -49.1165 43.2776 3
    endloop
  endfacet
  facet normal -0.125335 0.992114 0
    outer loop
      vertex -45.9944 44.292 3
      vertex -46.8167 44.1881 6
      vertex -45.9944 44.292 6
    endloop
  endfacet
  facet normal -0.125335 0.992114 0
    outer loop
      vertex -46.8167 44.1881 6
      vertex -45.9944 44.292 3
      vertex -46.8167 44.1881 3
    endloop
  endfacet
  facet normal -0.587788 0.809015 0
    outer loop
      vertex -49.1165 43.2776 3
      vertex -49.787 42.7904 6
      vertex -49.1165 43.2776 6
    endloop
  endfacet
  facet normal -0.587788 0.809015 0
    outer loop
      vertex -49.787 42.7904 6
      vertex -49.1165 43.2776 3
      vertex -49.787 42.7904 3
    endloop
  endfacet
  facet normal 0.587786 -0.809016 0
    outer loop
      vertex -48.4356 41.305 3
      vertex -48.0448 41.5889 6
      vertex -48.4356 41.305 6
    endloop
  endfacet
  facet normal 0.587786 -0.809016 0
    outer loop
      vertex -48.0448 41.5889 6
      vertex -48.4356 41.305 3
      vertex -48.0448 41.5889 3
    endloop
  endfacet
  facet normal 0.368123 -0.929777 0
    outer loop
      vertex -47.5386 41.8672 3
      vertex -47.0015 42.0799 6
      vertex -47.5386 41.8672 6
    endloop
  endfacet
  facet normal 0.368123 -0.929777 0
    outer loop
      vertex -47.0015 42.0799 6
      vertex -47.5386 41.8672 3
      vertex -47.0015 42.0799 3
    endloop
  endfacet
  facet normal 0.24869 -0.968583 0
    outer loop
      vertex -47.0015 42.0799 3
      vertex -46.442 42.2235 6
      vertex -47.0015 42.0799 6
    endloop
  endfacet
  facet normal 0.24869 -0.968583 0
    outer loop
      vertex -46.442 42.2235 6
      vertex -47.0015 42.0799 3
      vertex -46.442 42.2235 3
    endloop
  endfacet
  facet normal 0 -1 0
    outer loop
      vertex -45.8688 42.2959 3
      vertex -45.58 42.2959 6
      vertex -45.8688 42.2959 6
    endloop
  endfacet
  facet normal 0 -1 -0
    outer loop
      vertex -45.58 42.2959 6
      vertex -45.8688 42.2959 3
      vertex -45.58 42.2959 3
    endloop
  endfacet
  facet normal 0.481756 -0.876305 0
    outer loop
      vertex -48.0448 41.5889 3
      vertex -47.5386 41.8672 6
      vertex -48.0448 41.5889 6
    endloop
  endfacet
  facet normal 0.481756 -0.876305 0
    outer loop
      vertex -47.5386 41.8672 6
      vertex -48.0448 41.5889 3
      vertex -47.5386 41.8672 3
    endloop
  endfacet
  facet normal 0.125335 -0.992114 0
    outer loop
      vertex -46.442 42.2235 3
      vertex -45.8688 42.2959 6
      vertex -46.442 42.2235 6
    endloop
  endfacet
  facet normal 0.125335 -0.992114 0
    outer loop
      vertex -45.8688 42.2959 6
      vertex -46.442 42.2235 3
      vertex -45.8688 42.2959 3
    endloop
  endfacet
  facet normal 1 -0 0
    outer loop
      vertex -45.58 42.2959 6
      vertex -45.58 44.292 3
      vertex -45.58 44.292 6
    endloop
  endfacet
  facet normal 1 0 0
    outer loop
      vertex -45.58 44.292 3
      vertex -45.58 42.2959 6
      vertex -45.58 42.2959 3
    endloop
  endfacet
  facet normal 0 0 1
    outer loop
      vertex 45.9001 35.355 6
      vertex 48.0462 35.3568 6
      vertex 47.4475 36.8688 6
    endloop
  endfacet
  facet normal 0 0 1
    outer loop
      vertex 45.6379 36.0173 6
      vertex 47.4475 36.8688 6
      vertex 46.664 38.294 6
    endloop
  endfacet
  facet normal 0 -0 1
    outer loop
      vertex 45.9001 35.355 6
      vertex 47.4475 36.8688 6
      vertex 45.6379 36.0173 6
    endloop
  endfacet
  facet normal 0 0 1
    outer loop
      vertex 44.9754 37.2223 6
      vertex 46.664 38.294 6
      vertex 45.7081 39.6096 6
    endloop
  endfacet
  facet normal 0 0 1
    outer loop
      vertex 48.0462 35.3568 6
      vertex 45.9001 35.355 6
      vertex 48.0466 35.355 6
    endloop
  endfacet
  facet normal 0 0 1
    outer loop
      vertex 46.664 38.294 6
      vertex 44.9754 37.2223 6
      vertex 45.6379 36.0173 6
    endloop
  endfacet
  facet normal 0 0 1
    outer loop
      vertex 44.1671 38.3348 6
      vertex 45.7081 39.6096 6
      vertex 44.5949 40.7951 6
    endloop
  endfacet
  facet normal 0 0 1
    outer loop
      vertex 45.7081 39.6096 6
      vertex 44.1671 38.3348 6
      vertex 44.9754 37.2223 6
    endloop
  endfacet
  facet normal 0 0 1
    outer loop
      vertex 43.2258 39.3372 6
      vertex 44.5949 40.7951 6
      vertex 43.3418 41.8318 6
    endloop
  endfacet
  facet normal 0 0 1
    outer loop
      vertex 44.5949 40.7951 6
      vertex 43.2258 39.3372 6
      vertex 44.1671 38.3348 6
    endloop
  endfacet
  facet normal 0 0 1
    outer loop
      vertex 43.3418 41.8318 6
      vertex 42.1662 40.2137 6
      vertex 43.2258 39.3372 6
    endloop
  endfacet
  facet normal 0 0 1
    outer loop
      vertex 41.9687 42.7032 6
      vertex 42.1662 40.2137 6
      vertex 43.3418 41.8318 6
    endloop
  endfacet
  facet normal 0 0 1
    outer loop
      vertex 41.9687 42.7032 6
      vertex 41.0052 40.9506 6
      vertex 42.1662 40.2137 6
    endloop
  endfacet
  facet normal 0 0 1
    outer loop
      vertex 40.4972 43.3956 6
      vertex 41.0052 40.9506 6
      vertex 41.9687 42.7032 6
    endloop
  endfacet
  facet normal 0 0 1
    outer loop
      vertex 40.4972 43.3956 6
      vertex 39.761 41.5361 6
      vertex 41.0052 40.9506 6
    endloop
  endfacet
  facet normal 0 0 1
    outer loop
      vertex 39.73 41.5461 6
      vertex 40.4972 43.3956 6
      vertex 39.73 43.6449 6
    endloop
  endfacet
  facet normal 0 0 1
    outer loop
      vertex 40.4972 43.3956 6
      vertex 39.73 41.5461 6
      vertex 39.761 41.5361 6
    endloop
  endfacet
  facet normal 0.42578 0.904827 -0
    outer loop
      vertex 41.9687 42.7032 3
      vertex 40.4972 43.3956 6
      vertex 41.9687 42.7032 6
    endloop
  endfacet
  facet normal 0.42578 0.904827 0
    outer loop
      vertex 40.4972 43.3956 6
      vertex 41.9687 42.7032 3
      vertex 40.4972 43.3956 3
    endloop
  endfacet
  facet normal 0.968147 0.250383 0
    outer loop
      vertex 48.0466 35.355 6
      vertex 48.0462 35.3568 3
      vertex 48.0462 35.3568 6
    endloop
  endfacet
  facet normal 0.968147 0.250383 0
    outer loop
      vertex 48.0462 35.3568 3
      vertex 48.0466 35.355 6
      vertex 48.0466 35.355 3
    endloop
  endfacet
  facet normal 0.809017 0.587786 0
    outer loop
      vertex 46.664 38.294 6
      vertex 45.7081 39.6096 3
      vertex 45.7081 39.6096 6
    endloop
  endfacet
  facet normal 0.809017 0.587786 0
    outer loop
      vertex 45.7081 39.6096 3
      vertex 46.664 38.294 6
      vertex 46.664 38.294 3
    endloop
  endfacet
  facet normal 0.309018 0.951056 -0
    outer loop
      vertex 40.4972 43.3956 3
      vertex 39.73 43.6449 6
      vertex 40.4972 43.3956 6
    endloop
  endfacet
  facet normal 0.309018 0.951056 0
    outer loop
      vertex 39.73 43.6449 6
      vertex 40.4972 43.3956 3
      vertex 39.73 43.6449 3
    endloop
  endfacet
  facet normal 0.876307 0.481754 0
    outer loop
      vertex 47.4475 36.8688 6
      vertex 46.664 38.294 3
      vertex 46.664 38.294 6
    endloop
  endfacet
  facet normal 0.876307 0.481754 0
    outer loop
      vertex 46.664 38.294 3
      vertex 47.4475 36.8688 6
      vertex 47.4475 36.8688 3
    endloop
  endfacet
  facet normal 0.929777 0.368124 0
    outer loop
      vertex 48.0462 35.3568 6
      vertex 47.4475 36.8688 3
      vertex 47.4475 36.8688 6
    endloop
  endfacet
  facet normal 0.929777 0.368124 0
    outer loop
      vertex 47.4475 36.8688 3
      vertex 48.0462 35.3568 6
      vertex 48.0462 35.3568 3
    endloop
  endfacet
  facet normal 0.637425 0.770513 -0
    outer loop
      vertex 44.5949 40.7951 3
      vertex 43.3418 41.8318 6
      vertex 44.5949 40.7951 6
    endloop
  endfacet
  facet normal 0.637425 0.770513 0
    outer loop
      vertex 43.3418 41.8318 6
      vertex 44.5949 40.7951 3
      vertex 43.3418 41.8318 3
    endloop
  endfacet
  facet normal 0.535826 0.844328 -0
    outer loop
      vertex 43.3418 41.8318 3
      vertex 41.9687 42.7032 6
      vertex 43.3418 41.8318 6
    endloop
  endfacet
  facet normal 0.535826 0.844328 0
    outer loop
      vertex 41.9687 42.7032 6
      vertex 43.3418 41.8318 3
      vertex 41.9687 42.7032 3
    endloop
  endfacet
  facet normal 0.728969 0.684547 0
    outer loop
      vertex 45.7081 39.6096 6
      vertex 44.5949 40.7951 3
      vertex 44.5949 40.7951 6
    endloop
  endfacet
  facet normal 0.728969 0.684547 0
    outer loop
      vertex 44.5949 40.7951 3
      vertex 45.7081 39.6096 6
      vertex 45.7081 39.6096 3
    endloop
  endfacet
  facet normal -0.809017 -0.587785 0
    outer loop
      vertex 44.9754 37.2223 3
      vertex 44.1671 38.3348 6
      vertex 44.1671 38.3348 3
    endloop
  endfacet
  facet normal -0.809017 -0.587785 0
    outer loop
      vertex 44.1671 38.3348 6
      vertex 44.9754 37.2223 3
      vertex 44.9754 37.2223 6
    endloop
  endfacet
  facet normal -0.929776 -0.368126 0
    outer loop
      vertex 45.9001 35.355 3
      vertex 45.6379 36.0173 6
      vertex 45.6379 36.0173 3
    endloop
  endfacet
  facet normal -0.929776 -0.368126 0
    outer loop
      vertex 45.6379 36.0173 6
      vertex 45.9001 35.355 3
      vertex 45.9001 35.355 6
    endloop
  endfacet
  facet normal -0.535826 -0.844328 0
    outer loop
      vertex 41.0052 40.9506 3
      vertex 42.1662 40.2137 6
      vertex 41.0052 40.9506 6
    endloop
  endfacet
  facet normal -0.535826 -0.844328 -0
    outer loop
      vertex 42.1662 40.2137 6
      vertex 41.0052 40.9506 3
      vertex 42.1662 40.2137 3
    endloop
  endfacet
  facet normal -0.728969 -0.684547 0
    outer loop
      vertex 44.1671 38.3348 3
      vertex 43.2258 39.3372 6
      vertex 43.2258 39.3372 3
    endloop
  endfacet
  facet normal -0.728969 -0.684547 0
    outer loop
      vertex 43.2258 39.3372 6
      vertex 44.1671 38.3348 3
      vertex 44.1671 38.3348 6
    endloop
  endfacet
  facet normal -0.425779 -0.904827 0
    outer loop
      vertex 39.761 41.5361 3
      vertex 41.0052 40.9506 6
      vertex 39.761 41.5361 6
    endloop
  endfacet
  facet normal -0.425779 -0.904827 -0
    outer loop
      vertex 41.0052 40.9506 6
      vertex 39.761 41.5361 3
      vertex 41.0052 40.9506 3
    endloop
  endfacet
  facet normal -0.876307 -0.481753 0
    outer loop
      vertex 45.6379 36.0173 3
      vertex 44.9754 37.2223 6
      vertex 44.9754 37.2223 3
    endloop
  endfacet
  facet normal -0.876307 -0.481753 0
    outer loop
      vertex 44.9754 37.2223 6
      vertex 45.6379 36.0173 3
      vertex 45.6379 36.0173 6
    endloop
  endfacet
  facet normal -0.637424 -0.770514 0
    outer loop
      vertex 42.1662 40.2137 3
      vertex 43.2258 39.3372 6
      vertex 42.1662 40.2137 6
    endloop
  endfacet
  facet normal -0.637424 -0.770514 -0
    outer loop
      vertex 43.2258 39.3372 6
      vertex 42.1662 40.2137 3
      vertex 43.2258 39.3372 3
    endloop
  endfacet
  facet normal -0.309083 -0.951035 0
    outer loop
      vertex 39.73 41.5461 3
      vertex 39.761 41.5361 6
      vertex 39.73 41.5461 6
    endloop
  endfacet
  facet normal -0.309083 -0.951035 -0
    outer loop
      vertex 39.761 41.5361 6
      vertex 39.73 41.5461 3
      vertex 39.761 41.5361 3
    endloop
  endfacet
  facet normal 0 -1 0
    outer loop
      vertex 45.9001 35.355 3
      vertex 48.0466 35.355 6
      vertex 45.9001 35.355 6
    endloop
  endfacet
  facet normal 0 -1 -0
    outer loop
      vertex 48.0466 35.355 6
      vertex 45.9001 35.355 3
      vertex 48.0466 35.355 3
    endloop
  endfacet
  facet normal -1 0 0
    outer loop
      vertex 39.73 41.5461 3
      vertex 39.73 43.6449 6
      vertex 39.73 43.6449 3
    endloop
  endfacet
  facet normal -1 -0 0
    outer loop
      vertex 39.73 43.6449 6
      vertex 39.73 41.5461 3
      vertex 39.73 41.5461 6
    endloop
  endfacet
  facet normal -0 0 1
    outer loop
      vertex 45.9211 -31.855 6
      vertex 47.7706 -32.6222 6
      vertex 48.0199 -31.855 6
    endloop
  endfacet
  facet normal 0 0 1
    outer loop
      vertex 47.7706 -32.6222 6
      vertex 45.9111 -31.886 6
      vertex 47.0782 -34.0937 6
    endloop
  endfacet
  facet normal 0 0 1
    outer loop
      vertex 47.7706 -32.6222 6
      vertex 45.9211 -31.855 6
      vertex 45.9111 -31.886 6
    endloop
  endfacet
  facet normal 0 0 1
    outer loop
      vertex 47.0782 -34.0937 6
      vertex 45.9111 -31.886 6
      vertex 45.3256 -33.1302 6
    endloop
  endfacet
  facet normal 0 0 1
    outer loop
      vertex 47.0782 -34.0937 6
      vertex 45.3256 -33.1302 6
      vertex 46.2068 -35.4668 6
    endloop
  endfacet
  facet normal -0 0 1
    outer loop
      vertex 44.5887 -34.2912 6
      vertex 46.2068 -35.4668 6
      vertex 45.3256 -33.1302 6
    endloop
  endfacet
  facet normal 0 0 1
    outer loop
      vertex 46.2068 -35.4668 6
      vertex 44.5887 -34.2912 6
      vertex 45.1701 -36.7199 6
    endloop
  endfacet
  facet normal -0 0 1
    outer loop
      vertex 43.7122 -35.3508 6
      vertex 45.1701 -36.7199 6
      vertex 44.5887 -34.2912 6
    endloop
  endfacet
  facet normal 0 0 1
    outer loop
      vertex 45.1701 -36.7199 6
      vertex 43.7122 -35.3508 6
      vertex 43.9846 -37.8331 6
    endloop
  endfacet
  facet normal -0 0 1
    outer loop
      vertex 42.7098 -36.2921 6
      vertex 43.9846 -37.8331 6
      vertex 43.7122 -35.3508 6
    endloop
  endfacet
  facet normal 0 0 1
    outer loop
      vertex 42.7098 -36.2921 6
      vertex 42.669 -38.789 6
      vertex 43.9846 -37.8331 6
    endloop
  endfacet
  facet normal -0 0 1
    outer loop
      vertex 41.5973 -37.1004 6
      vertex 42.669 -38.789 6
      vertex 42.7098 -36.2921 6
    endloop
  endfacet
  facet normal 0 0 1
    outer loop
      vertex 41.5973 -37.1004 6
      vertex 41.2438 -39.5725 6
      vertex 42.669 -38.789 6
    endloop
  endfacet
  facet normal -0 0 1
    outer loop
      vertex 40.3923 -37.7629 6
      vertex 41.2438 -39.5725 6
      vertex 41.5973 -37.1004 6
    endloop
  endfacet
  facet normal -0 0 1
    outer loop
      vertex 39.73 -38.0251 6
      vertex 41.2438 -39.5725 6
      vertex 40.3923 -37.7629 6
    endloop
  endfacet
  facet normal 0 0 1
    outer loop
      vertex 41.2438 -39.5725 6
      vertex 39.73 -38.0251 6
      vertex 39.7318 -40.1712 6
    endloop
  endfacet
  facet normal 0 0 1
    outer loop
      vertex 39.7318 -40.1712 6
      vertex 39.73 -38.0251 6
      vertex 39.73 -40.1716 6
    endloop
  endfacet
  facet normal 0.904827 -0.42578 0
    outer loop
      vertex 47.0782 -34.0937 6
      vertex 47.7706 -32.6222 3
      vertex 47.7706 -32.6222 6
    endloop
  endfacet
  facet normal 0.904827 -0.42578 0
    outer loop
      vertex 47.7706 -32.6222 3
      vertex 47.0782 -34.0937 6
      vertex 47.0782 -34.0937 3
    endloop
  endfacet
  facet normal 0.250383 -0.968147 0
    outer loop
      vertex 39.73 -40.1716 3
      vertex 39.7318 -40.1712 6
      vertex 39.73 -40.1716 6
    endloop
  endfacet
  facet normal 0.250383 -0.968147 0
    outer loop
      vertex 39.7318 -40.1712 6
      vertex 39.73 -40.1716 3
      vertex 39.7318 -40.1712 3
    endloop
  endfacet
  facet normal 0.587786 -0.809017 0
    outer loop
      vertex 42.669 -38.789 3
      vertex 43.9846 -37.8331 6
      vertex 42.669 -38.789 6
    endloop
  endfacet
  facet normal 0.587786 -0.809017 0
    outer loop
      vertex 43.9846 -37.8331 6
      vertex 42.669 -38.789 3
      vertex 43.9846 -37.8331 3
    endloop
  endfacet
  facet normal 0.951056 -0.309018 0
    outer loop
      vertex 47.7706 -32.6222 6
      vertex 48.0199 -31.855 3
      vertex 48.0199 -31.855 6
    endloop
  endfacet
  facet normal 0.951056 -0.309018 0
    outer loop
      vertex 48.0199 -31.855 3
      vertex 47.7706 -32.6222 6
      vertex 47.7706 -32.6222 3
    endloop
  endfacet
  facet normal 0.481754 -0.876307 0
    outer loop
      vertex 41.2438 -39.5725 3
      vertex 42.669 -38.789 6
      vertex 41.2438 -39.5725 6
    endloop
  endfacet
  facet normal 0.481754 -0.876307 0
    outer loop
      vertex 42.669 -38.789 6
      vertex 41.2438 -39.5725 3
      vertex 42.669 -38.789 3
    endloop
  endfacet
  facet normal 0.368124 -0.929777 0
    outer loop
      vertex 39.7318 -40.1712 3
      vertex 41.2438 -39.5725 6
      vertex 39.7318 -40.1712 6
    endloop
  endfacet
  facet normal 0.368124 -0.929777 0
    outer loop
      vertex 41.2438 -39.5725 6
      vertex 39.7318 -40.1712 3
      vertex 41.2438 -39.5725 3
    endloop
  endfacet
  facet normal 0.770513 -0.637425 0
    outer loop
      vertex 45.1701 -36.7199 6
      vertex 46.2068 -35.4668 3
      vertex 46.2068 -35.4668 6
    endloop
  endfacet
  facet normal 0.770513 -0.637425 0
    outer loop
      vertex 46.2068 -35.4668 3
      vertex 45.1701 -36.7199 6
      vertex 45.1701 -36.7199 3
    endloop
  endfacet
  facet normal 0.844328 -0.535826 0
    outer loop
      vertex 46.2068 -35.4668 6
      vertex 47.0782 -34.0937 3
      vertex 47.0782 -34.0937 6
    endloop
  endfacet
  facet normal 0.844328 -0.535826 0
    outer loop
      vertex 47.0782 -34.0937 3
      vertex 46.2068 -35.4668 6
      vertex 46.2068 -35.4668 3
    endloop
  endfacet
  facet normal 0.684547 -0.728969 0
    outer loop
      vertex 43.9846 -37.8331 3
      vertex 45.1701 -36.7199 6
      vertex 43.9846 -37.8331 6
    endloop
  endfacet
  facet normal 0.684547 -0.728969 0
    outer loop
      vertex 45.1701 -36.7199 6
      vertex 43.9846 -37.8331 3
      vertex 45.1701 -36.7199 3
    endloop
  endfacet
  facet normal -0.587785 0.809017 0
    outer loop
      vertex 42.7098 -36.2921 3
      vertex 41.5973 -37.1004 6
      vertex 42.7098 -36.2921 6
    endloop
  endfacet
  facet normal -0.587785 0.809017 0
    outer loop
      vertex 41.5973 -37.1004 6
      vertex 42.7098 -36.2921 3
      vertex 41.5973 -37.1004 3
    endloop
  endfacet
  facet normal -0.368126 0.929776 0
    outer loop
      vertex 40.3923 -37.7629 3
      vertex 39.73 -38.0251 6
      vertex 40.3923 -37.7629 6
    endloop
  endfacet
  facet normal -0.368126 0.929776 0
    outer loop
      vertex 39.73 -38.0251 6
      vertex 40.3923 -37.7629 3
      vertex 39.73 -38.0251 3
    endloop
  endfacet
  facet normal -0.844328 0.535826 0
    outer loop
      vertex 44.5887 -34.2912 3
      vertex 45.3256 -33.1302 6
      vertex 45.3256 -33.1302 3
    endloop
  endfacet
  facet normal -0.844328 0.535826 0
    outer loop
      vertex 45.3256 -33.1302 6
      vertex 44.5887 -34.2912 3
      vertex 44.5887 -34.2912 6
    endloop
  endfacet
  facet normal -0.684547 0.728969 0
    outer loop
      vertex 43.7122 -35.3508 3
      vertex 42.7098 -36.2921 6
      vertex 43.7122 -35.3508 6
    endloop
  endfacet
  facet normal -0.684547 0.728969 0
    outer loop
      vertex 42.7098 -36.2921 6
      vertex 43.7122 -35.3508 3
      vertex 42.7098 -36.2921 3
    endloop
  endfacet
  facet normal -0.904827 0.425779 0
    outer loop
      vertex 45.3256 -33.1302 3
      vertex 45.9111 -31.886 6
      vertex 45.9111 -31.886 3
    endloop
  endfacet
  facet normal -0.904827 0.425779 0
    outer loop
      vertex 45.9111 -31.886 6
      vertex 45.3256 -33.1302 3
      vertex 45.3256 -33.1302 6
    endloop
  endfacet
  facet normal -0.481753 0.876307 0
    outer loop
      vertex 41.5973 -37.1004 3
      vertex 40.3923 -37.7629 6
      vertex 41.5973 -37.1004 6
    endloop
  endfacet
  facet normal -0.481753 0.876307 0
    outer loop
      vertex 40.3923 -37.7629 6
      vertex 41.5973 -37.1004 3
      vertex 40.3923 -37.7629 3
    endloop
  endfacet
  facet normal -0.770514 0.637424 0
    outer loop
      vertex 43.7122 -35.3508 3
      vertex 44.5887 -34.2912 6
      vertex 44.5887 -34.2912 3
    endloop
  endfacet
  facet normal -0.770514 0.637424 0
    outer loop
      vertex 44.5887 -34.2912 6
      vertex 43.7122 -35.3508 3
      vertex 43.7122 -35.3508 6
    endloop
  endfacet
  facet normal -0.951035 0.309083 0
    outer loop
      vertex 45.9111 -31.886 3
      vertex 45.9211 -31.855 6
      vertex 45.9211 -31.855 3
    endloop
  endfacet
  facet normal -0.951035 0.309083 0
    outer loop
      vertex 45.9211 -31.855 6
      vertex 45.9111 -31.886 3
      vertex 45.9111 -31.886 6
    endloop
  endfacet
  facet normal -1 0 0
    outer loop
      vertex 39.73 -40.1716 3
      vertex 39.73 -38.0251 6
      vertex 39.73 -38.0251 3
    endloop
  endfacet
  facet normal -1 -0 0
    outer loop
      vertex 39.73 -38.0251 6
      vertex 39.73 -40.1716 3
      vertex 39.73 -40.1716 6
    endloop
  endfacet
  facet normal 0 1 -0
    outer loop
      vertex 48.0199 -31.855 3
      vertex 45.9211 -31.855 6
      vertex 48.0199 -31.855 6
    endloop
  endfacet
  facet normal 0 1 0
    outer loop
      vertex 45.9211 -31.855 6
      vertex 48.0199 -31.855 3
      vertex 45.9211 -31.855 3
    endloop
  endfacet
  facet normal -1 0 0
    outer loop
      vertex -52.167 -34.6194 3
      vertex -52.167 -34.205 6
      vertex -52.167 -34.205 3
    endloop
  endfacet
  facet normal -1 -0 0
    outer loop
      vertex -52.167 -34.205 6
      vertex -52.167 -34.6194 3
      vertex -52.167 -34.6194 6
    endloop
  endfacet
  facet normal -0.728969 -0.684546 0
    outer loop
      vertex -50.098 -39.0162 3
      vertex -50.6654 -38.412 6
      vertex -50.6654 -38.412 3
    endloop
  endfacet
  facet normal -0.728969 -0.684546 0
    outer loop
      vertex -50.6654 -38.412 6
      vertex -50.098 -39.0162 3
      vertex -50.098 -39.0162 6
    endloop
  endfacet
  facet normal -0.425779 -0.904827 0
    outer loop
      vertex -48.7596 -39.9886 3
      vertex -48.0096 -40.3415 6
      vertex -48.7596 -39.9886 6
    endloop
  endfacet
  facet normal -0.425779 -0.904827 -0
    outer loop
      vertex -48.0096 -40.3415 6
      vertex -48.7596 -39.9886 3
      vertex -48.0096 -40.3415 3
    endloop
  endfacet
  facet normal -0.637424 -0.770513 0
    outer loop
      vertex -50.098 -39.0162 3
      vertex -49.4594 -39.5445 6
      vertex -50.098 -39.0162 6
    endloop
  endfacet
  facet normal -0.637424 -0.770513 -0
    outer loop
      vertex -49.4594 -39.5445 6
      vertex -50.098 -39.0162 3
      vertex -49.4594 -39.5445 3
    endloop
  endfacet
  facet normal -0 0 1
    outer loop
      vertex -52.167 -34.205 6
      vertex -50.1709 -34.4938 6
      vertex -50.1709 -34.205 6
    endloop
  endfacet
  facet normal 0 0 1
    outer loop
      vertex -50.1709 -34.4938 6
      vertex -51.1526 -37.7415 6
      vertex -50.6654 -38.412 6
    endloop
  endfacet
  facet normal 0 0 1
    outer loop
      vertex -50.1709 -34.4938 6
      vertex -51.5519 -37.0151 6
      vertex -51.1526 -37.7415 6
    endloop
  endfacet
  facet normal 0 0 1
    outer loop
      vertex -50.1709 -34.4938 6
      vertex -51.857 -36.2445 6
      vertex -51.5519 -37.0151 6
    endloop
  endfacet
  facet normal 0 0 1
    outer loop
      vertex -50.1709 -34.4938 6
      vertex -52.0631 -35.4417 6
      vertex -51.857 -36.2445 6
    endloop
  endfacet
  facet normal 0 0 1
    outer loop
      vertex -50.1709 -34.4938 6
      vertex -52.167 -34.205 6
      vertex -52.167 -34.6194 6
    endloop
  endfacet
  facet normal 0 0 1
    outer loop
      vertex -50.1709 -34.4938 6
      vertex -52.167 -34.6194 6
      vertex -52.0631 -35.4417 6
    endloop
  endfacet
  facet normal 0 0 1
    outer loop
      vertex -46.1565 -38.7687 6
      vertex -45.58 -40.805 6
      vertex -45.58 -38.805 6
    endloop
  endfacet
  facet normal 0 0 1
    outer loop
      vertex -46.1565 -38.7687 6
      vertex -46.4072 -40.753 6
      vertex -45.58 -40.805 6
    endloop
  endfacet
  facet normal 0 0 1
    outer loop
      vertex -46.724 -38.6605 6
      vertex -46.4072 -40.753 6
      vertex -46.1565 -38.7687 6
    endloop
  endfacet
  facet normal 0 0 1
    outer loop
      vertex -46.724 -38.6605 6
      vertex -47.2214 -40.5976 6
      vertex -46.4072 -40.753 6
    endloop
  endfacet
  facet normal 0 0 1
    outer loop
      vertex -47.2734 -38.482 6
      vertex -47.2214 -40.5976 6
      vertex -46.724 -38.6605 6
    endloop
  endfacet
  facet normal 0 0 1
    outer loop
      vertex -48.0096 -40.3415 6
      vertex -47.2734 -38.482 6
      vertex -47.7961 -38.236 6
    endloop
  endfacet
  facet normal 0 0 1
    outer loop
      vertex -47.2734 -38.482 6
      vertex -48.0096 -40.3415 6
      vertex -47.2214 -40.5976 6
    endloop
  endfacet
  facet normal 0 0 1
    outer loop
      vertex -48.7596 -39.9886 6
      vertex -47.7961 -38.236 6
      vertex -48.2838 -37.9265 6
    endloop
  endfacet
  facet normal 0 0 1
    outer loop
      vertex -49.4594 -39.5445 6
      vertex -48.2838 -37.9265 6
      vertex -48.7289 -37.5583 6
    endloop
  endfacet
  facet normal 0 0 1
    outer loop
      vertex -47.7961 -38.236 6
      vertex -48.7596 -39.9886 6
      vertex -48.0096 -40.3415 6
    endloop
  endfacet
  facet normal 0 0 1
    outer loop
      vertex -50.098 -39.0162 6
      vertex -48.7289 -37.5583 6
      vertex -49.1244 -37.1371 6
    endloop
  endfacet
  facet normal 0 0 1
    outer loop
      vertex -48.2838 -37.9265 6
      vertex -49.4594 -39.5445 6
      vertex -48.7596 -39.9886 6
    endloop
  endfacet
  facet normal 0 0 1
    outer loop
      vertex -50.6654 -38.412 6
      vertex -49.1244 -37.1371 6
      vertex -49.4639 -36.6698 6
    endloop
  endfacet
  facet normal 0 0 1
    outer loop
      vertex -50.6654 -38.412 6
      vertex -49.4639 -36.6698 6
      vertex -49.7422 -36.1636 6
    endloop
  endfacet
  facet normal 0 0 1
    outer loop
      vertex -50.6654 -38.412 6
      vertex -49.7422 -36.1636 6
      vertex -49.9549 -35.6265 6
    endloop
  endfacet
  facet normal 0 0 1
    outer loop
      vertex -48.7289 -37.5583 6
      vertex -50.098 -39.0162 6
      vertex -49.4594 -39.5445 6
    endloop
  endfacet
  facet normal 0 0 1
    outer loop
      vertex -50.6654 -38.412 6
      vertex -49.9549 -35.6265 6
      vertex -50.0985 -35.067 6
    endloop
  endfacet
  facet normal 0 0 1
    outer loop
      vertex -50.6654 -38.412 6
      vertex -50.0985 -35.067 6
      vertex -50.1709 -34.4938 6
    endloop
  endfacet
  facet normal 0 0 1
    outer loop
      vertex -49.1244 -37.1371 6
      vertex -50.6654 -38.412 6
      vertex -50.098 -39.0162 6
    endloop
  endfacet
  facet normal -0.309017 -0.951057 0
    outer loop
      vertex -48.0096 -40.3415 3
      vertex -47.2214 -40.5976 6
      vertex -48.0096 -40.3415 6
    endloop
  endfacet
  facet normal -0.309017 -0.951057 -0
    outer loop
      vertex -47.2214 -40.5976 6
      vertex -48.0096 -40.3415 3
      vertex -47.2214 -40.5976 3
    endloop
  endfacet
  facet normal -0.0627918 -0.998027 0
    outer loop
      vertex -46.4072 -40.753 3
      vertex -45.58 -40.805 6
      vertex -46.4072 -40.753 6
    endloop
  endfacet
  facet normal -0.0627918 -0.998027 -0
    outer loop
      vertex -45.58 -40.805 6
      vertex -46.4072 -40.753 3
      vertex -45.58 -40.805 3
    endloop
  endfacet
  facet normal -0.929777 -0.368124 0
    outer loop
      vertex -51.5519 -37.0151 3
      vertex -51.857 -36.2445 6
      vertex -51.857 -36.2445 3
    endloop
  endfacet
  facet normal -0.929777 -0.368124 0
    outer loop
      vertex -51.857 -36.2445 6
      vertex -51.5519 -37.0151 3
      vertex -51.5519 -37.0151 6
    endloop
  endfacet
  facet normal -0.968583 -0.24869 0
    outer loop
      vertex -51.857 -36.2445 3
      vertex -52.0631 -35.4417 6
      vertex -52.0631 -35.4417 3
    endloop
  endfacet
  facet normal -0.968583 -0.24869 0
    outer loop
      vertex -52.0631 -35.4417 6
      vertex -51.857 -36.2445 3
      vertex -51.857 -36.2445 6
    endloop
  endfacet
  facet normal -0.535827 -0.844328 0
    outer loop
      vertex -49.4594 -39.5445 3
      vertex -48.7596 -39.9886 6
      vertex -49.4594 -39.5445 6
    endloop
  endfacet
  facet normal -0.535827 -0.844328 -0
    outer loop
      vertex -48.7596 -39.9886 6
      vertex -49.4594 -39.5445 3
      vertex -48.7596 -39.9886 3
    endloop
  endfacet
  facet normal -0.18738 -0.982287 0
    outer loop
      vertex -47.2214 -40.5976 3
      vertex -46.4072 -40.753 6
      vertex -47.2214 -40.5976 6
    endloop
  endfacet
  facet normal -0.18738 -0.982287 -0
    outer loop
      vertex -46.4072 -40.753 6
      vertex -47.2214 -40.5976 3
      vertex -46.4072 -40.753 3
    endloop
  endfacet
  facet normal -0.876308 -0.481751 0
    outer loop
      vertex -51.1526 -37.7415 3
      vertex -51.5519 -37.0151 6
      vertex -51.5519 -37.0151 3
    endloop
  endfacet
  facet normal -0.876308 -0.481751 0
    outer loop
      vertex -51.5519 -37.0151 6
      vertex -51.1526 -37.7415 3
      vertex -51.1526 -37.7415 6
    endloop
  endfacet
  facet normal -0.992114 -0.125335 0
    outer loop
      vertex -52.0631 -35.4417 3
      vertex -52.167 -34.6194 6
      vertex -52.167 -34.6194 3
    endloop
  endfacet
  facet normal -0.992114 -0.125335 0
    outer loop
      vertex -52.167 -34.6194 6
      vertex -52.0631 -35.4417 3
      vertex -52.0631 -35.4417 6
    endloop
  endfacet
  facet normal -0.809015 -0.587788 0
    outer loop
      vertex -50.6654 -38.412 3
      vertex -51.1526 -37.7415 6
      vertex -51.1526 -37.7415 3
    endloop
  endfacet
  facet normal -0.809015 -0.587788 0
    outer loop
      vertex -51.1526 -37.7415 6
      vertex -50.6654 -38.412 3
      vertex -50.6654 -38.412 6
    endloop
  endfacet
  facet normal 0.0627935 0.998027 -0
    outer loop
      vertex -45.58 -38.805 3
      vertex -46.1565 -38.7687 6
      vertex -45.58 -38.805 6
    endloop
  endfacet
  facet normal 0.0627935 0.998027 0
    outer loop
      vertex -46.1565 -38.7687 6
      vertex -45.58 -38.805 3
      vertex -46.1565 -38.7687 3
    endloop
  endfacet
  facet normal 0.728966 0.68455 0
    outer loop
      vertex -48.7289 -37.5583 6
      vertex -49.1244 -37.1371 3
      vertex -49.1244 -37.1371 6
    endloop
  endfacet
  facet normal 0.728966 0.68455 0
    outer loop
      vertex -49.1244 -37.1371 3
      vertex -48.7289 -37.5583 6
      vertex -48.7289 -37.5583 3
    endloop
  endfacet
  facet normal 0.425778 0.904828 -0
    outer loop
      vertex -47.2734 -38.482 3
      vertex -47.7961 -38.236 6
      vertex -47.2734 -38.482 6
    endloop
  endfacet
  facet normal 0.425778 0.904828 0
    outer loop
      vertex -47.7961 -38.236 6
      vertex -47.2734 -38.482 3
      vertex -47.7961 -38.236 3
    endloop
  endfacet
  facet normal 0.535825 0.844329 -0
    outer loop
      vertex -47.7961 -38.236 3
      vertex -48.2838 -37.9265 6
      vertex -47.7961 -38.236 6
    endloop
  endfacet
  facet normal 0.535825 0.844329 0
    outer loop
      vertex -48.2838 -37.9265 6
      vertex -47.7961 -38.236 3
      vertex -48.2838 -37.9265 3
    endloop
  endfacet
  facet normal 0.187376 0.982288 -0
    outer loop
      vertex -46.1565 -38.7687 3
      vertex -46.724 -38.6605 6
      vertex -46.1565 -38.7687 6
    endloop
  endfacet
  facet normal 0.187376 0.982288 0
    outer loop
      vertex -46.724 -38.6605 6
      vertex -46.1565 -38.7687 3
      vertex -46.724 -38.6605 3
    endloop
  endfacet
  facet normal 0.809018 0.587784 0
    outer loop
      vertex -49.1244 -37.1371 6
      vertex -49.4639 -36.6698 3
      vertex -49.4639 -36.6698 6
    endloop
  endfacet
  facet normal 0.809018 0.587784 0
    outer loop
      vertex -49.4639 -36.6698 3
      vertex -49.1244 -37.1371 6
      vertex -49.1244 -37.1371 3
    endloop
  endfacet
  facet normal 0.929777 0.368123 0
    outer loop
      vertex -49.7422 -36.1636 6
      vertex -49.9549 -35.6265 3
      vertex -49.9549 -35.6265 6
    endloop
  endfacet
  facet normal 0.929777 0.368123 0
    outer loop
      vertex -49.9549 -35.6265 3
      vertex -49.7422 -36.1636 6
      vertex -49.7422 -36.1636 3
    endloop
  endfacet
  facet normal 0.968583 0.24869 0
    outer loop
      vertex -49.9549 -35.6265 6
      vertex -50.0985 -35.067 3
      vertex -50.0985 -35.067 6
    endloop
  endfacet
  facet normal 0.968583 0.24869 0
    outer loop
      vertex -50.0985 -35.067 3
      vertex -49.9549 -35.6265 6
      vertex -49.9549 -35.6265 3
    endloop
  endfacet
  facet normal 1 -0 0
    outer loop
      vertex -50.1709 -34.4938 6
      vertex -50.1709 -34.205 3
      vertex -50.1709 -34.205 6
    endloop
  endfacet
  facet normal 1 0 0
    outer loop
      vertex -50.1709 -34.205 3
      vertex -50.1709 -34.4938 6
      vertex -50.1709 -34.4938 3
    endloop
  endfacet
  facet normal 0.637428 0.77051 -0
    outer loop
      vertex -48.2838 -37.9265 3
      vertex -48.7289 -37.5583 6
      vertex -48.2838 -37.9265 6
    endloop
  endfacet
  facet normal 0.637428 0.77051 0
    outer loop
      vertex -48.7289 -37.5583 6
      vertex -48.2838 -37.9265 3
      vertex -48.7289 -37.5583 3
    endloop
  endfacet
  facet normal 0.309019 0.951056 -0
    outer loop
      vertex -46.724 -38.6605 3
      vertex -47.2734 -38.482 6
      vertex -46.724 -38.6605 6
    endloop
  endfacet
  facet normal 0.309019 0.951056 0
    outer loop
      vertex -47.2734 -38.482 6
      vertex -46.724 -38.6605 3
      vertex -47.2734 -38.482 3
    endloop
  endfacet
  facet normal 0.876305 0.481756 0
    outer loop
      vertex -49.4639 -36.6698 6
      vertex -49.7422 -36.1636 3
      vertex -49.7422 -36.1636 6
    endloop
  endfacet
  facet normal 0.876305 0.481756 0
    outer loop
      vertex -49.7422 -36.1636 3
      vertex -49.4639 -36.6698 6
      vertex -49.4639 -36.6698 3
    endloop
  endfacet
  facet normal 0.992114 0.125335 0
    outer loop
      vertex -50.0985 -35.067 6
      vertex -50.1709 -34.4938 3
      vertex -50.1709 -34.4938 6
    endloop
  endfacet
  facet normal 0.992114 0.125335 0
    outer loop
      vertex -50.1709 -34.4938 3
      vertex -50.0985 -35.067 6
      vertex -50.0985 -35.067 3
    endloop
  endfacet
  facet normal 0 1 -0
    outer loop
      vertex -50.1709 -34.205 3
      vertex -52.167 -34.205 6
      vertex -50.1709 -34.205 6
    endloop
  endfacet
  facet normal 0 1 0
    outer loop
      vertex -52.167 -34.205 6
      vertex -50.1709 -34.205 3
      vertex -52.167 -34.205 3
    endloop
  endfacet
  facet normal 1 -0 0
    outer loop
      vertex -45.58 -40.805 6
      vertex -45.58 -38.805 3
      vertex -45.58 -38.805 6
    endloop
  endfacet
  facet normal 1 0 0
    outer loop
      vertex -45.58 -38.805 3
      vertex -45.58 -40.805 6
      vertex -45.58 -40.805 3
    endloop
  endfacet
  facet normal -1 0 0
    outer loop
      vertex -44.22 38.844 1
      vertex -44.22 41.305 3
      vertex -44.22 41.305 1
    endloop
  endfacet
  facet normal -1 -0 0
    outer loop
      vertex -44.22 41.305 3
      vertex -44.22 38.844 1
      vertex -44.22 38.844 3
    endloop
  endfacet
  facet normal -1 0 0
    outer loop
      vertex -44.22 1.805 1
      vertex -44.22 29.344 3
      vertex -44.22 29.344 1
    endloop
  endfacet
  facet normal -1 -0 0
    outer loop
      vertex -44.22 29.344 3
      vertex -44.22 1.805 1
      vertex -44.22 1.805 3
    endloop
  endfacet
  facet normal 0 -1 0
    outer loop
      vertex -52.8203 41.305 1
      vertex -51.0968 41.305 3
      vertex -52.8203 41.305 3
    endloop
  endfacet
  facet normal 0 -1 -0
    outer loop
      vertex -51.0968 41.305 3
      vertex -52.8203 41.305 1
      vertex -48.4356 41.305 3
    endloop
  endfacet
  facet normal 0 -1 0
    outer loop
      vertex -44.22 41.305 1
      vertex -48.4356 41.305 3
      vertex -52.8203 41.305 1
    endloop
  endfacet
  facet normal 0 -1 0
    outer loop
      vertex -48.4356 41.305 3
      vertex -44.22 41.305 1
      vertex -44.22 41.305 3
    endloop
  endfacet
  facet normal 0 -1 0
    outer loop
      vertex -51.0968 41.305 3
      vertex -48.4356 41.305 6
      vertex -51.0968 41.305 6
    endloop
  endfacet
  facet normal 0 -1 -0
    outer loop
      vertex -48.4356 41.305 6
      vertex -51.0968 41.305 3
      vertex -48.4356 41.305 3
    endloop
  endfacet
  facet normal 0 1 -0
    outer loop
      vertex -44.22 1.805 1
      vertex -53.68 1.805 3
      vertex -44.22 1.805 3
    endloop
  endfacet
  facet normal 0 1 0
    outer loop
      vertex -53.68 1.805 3
      vertex -44.22 1.805 1
      vertex -53.68 1.805 1
    endloop
  endfacet
  facet normal -1 0 0
    outer loop
      vertex -40.07 29.344 1
      vertex -40.07 38.844 3
      vertex -40.07 38.844 1
    endloop
  endfacet
  facet normal -1 -0 0
    outer loop
      vertex -40.07 38.844 3
      vertex -40.07 29.344 1
      vertex -40.07 29.344 3
    endloop
  endfacet
  facet normal 0 1 -0
    outer loop
      vertex -40.07 29.344 1
      vertex -44.22 29.344 3
      vertex -40.07 29.344 3
    endloop
  endfacet
  facet normal 0 1 0
    outer loop
      vertex -44.22 29.344 3
      vertex -40.07 29.344 1
      vertex -44.22 29.344 1
    endloop
  endfacet
  facet normal 0 -1 0
    outer loop
      vertex -44.22 38.844 1
      vertex -40.07 38.844 3
      vertex -44.22 38.844 3
    endloop
  endfacet
  facet normal 0 -1 -0
    outer loop
      vertex -40.07 38.844 3
      vertex -44.22 38.844 1
      vertex -40.07 38.844 1
    endloop
  endfacet
  facet normal 1 -0 0
    outer loop
      vertex 13.07 30.055 3
      vertex 13.07 36.055 1
      vertex 13.07 36.055 3
    endloop
  endfacet
  facet normal 1 0 0
    outer loop
      vertex 13.07 36.055 1
      vertex 13.07 30.055 3
      vertex 13.07 30.055 1
    endloop
  endfacet
  facet normal -1 0 0
    outer loop
      vertex 19.07 30.055 1
      vertex 19.07 36.055 3
      vertex 19.07 36.055 1
    endloop
  endfacet
  facet normal -1 -0 0
    outer loop
      vertex 19.07 36.055 3
      vertex 19.07 30.055 1
      vertex 19.07 30.055 3
    endloop
  endfacet
  facet normal 0 -1 0
    outer loop
      vertex 13.07 36.055 1
      vertex 19.07 36.055 3
      vertex 13.07 36.055 3
    endloop
  endfacet
  facet normal 0 -1 -0
    outer loop
      vertex 19.07 36.055 3
      vertex 13.07 36.055 1
      vertex 19.07 36.055 1
    endloop
  endfacet
  facet normal 0 1 -0
    outer loop
      vertex 19.07 30.055 1
      vertex 13.07 30.055 3
      vertex 19.07 30.055 3
    endloop
  endfacet
  facet normal 0 1 0
    outer loop
      vertex 13.07 30.055 3
      vertex 19.07 30.055 1
      vertex 13.07 30.055 1
    endloop
  endfacet
endsolid OpenSCAD_Model
